ISO-10303-21;
HEADER;
FILE_DESCRIPTION (( 'STEP AP203' ),
    '1' );
FILE_NAME ('motor_support1.STEP',
    '2026-06-01T06:32:56',
    ( '' ),
    ( '' ),
    'SwSTEP 2.0',
    'SolidWorks 2025',
    '' );
FILE_SCHEMA (( 'CONFIG_CONTROL_DESIGN' ));
ENDSEC;

DATA;
#1 = DIRECTION ( 'NONE',  ( -0.000000000000000000, -0.000000000000000000, 1.000000000000000000 ) ) ;
#2 = ORIENTED_EDGE ( 'NONE', *, *, #199, .F. ) ;
#3 = EDGE_CURVE ( 'NONE', #133, #206, #222, .T. ) ;
#4 = CC_DESIGN_APPROVAL ( #47, ( #58 ) ) ;
#5 = DIRECTION ( 'NONE',  ( 0.000000000000000000, 0.000000000000000000, -1.000000000000000000 ) ) ;
#6 = VECTOR ( 'NONE', #205, 1000.000000000000000 ) ;
#7 = VERTEX_POINT ( 'NONE', #460 ) ;
#8 = FACE_OUTER_BOUND ( 'NONE', #139, .T. ) ;
#9 = ORIENTED_EDGE ( 'NONE', *, *, #238, .F. ) ;
#10 = EDGE_CURVE ( 'NONE', #59, #206, #24, .T. ) ;
#11 = CARTESIAN_POINT ( 'NONE',  ( -0.7499999999999995559, 2.449293598294706513E-15, 0.000000000000000000 ) ) ;
#12 = ORIENTED_EDGE ( 'NONE', *, *, #473, .F. ) ;
#13 = DIRECTION ( 'NONE',  ( 1.000000000000000000, 0.000000000000000000, 0.000000000000000000 ) ) ;
#14 =( GEOMETRIC_REPRESENTATION_CONTEXT ( 3 ) GLOBAL_UNCERTAINTY_ASSIGNED_CONTEXT ( ( #503 ) ) GLOBAL_UNIT_ASSIGNED_CONTEXT ( ( #110, #30, #268 ) ) REPRESENTATION_CONTEXT ( 'NONE', 'WORKASPACE' ) );
#15 = DIRECTION ( 'NONE',  ( 0.000000000000000000, 1.000000000000000000, -0.000000000000000000 ) ) ;
#16 = AXIS2_PLACEMENT_3D ( 'NONE', #480, #29, #274 ) ;
#17 = FACE_OUTER_BOUND ( 'NONE', #502, .T. ) ;
#18 = EDGE_CURVE ( 'NONE', #214, #289, #293, .T. ) ;
#19 = VERTEX_POINT ( 'NONE', #51 ) ;
#20 = CARTESIAN_POINT ( 'NONE',  ( -15.25000000000000000, 6.173778888663049889E-16, 2.500000000000000000 ) ) ;
#21 = ORIENTED_EDGE ( 'NONE', *, *, #185, .T. ) ;
#22 = CC_DESIGN_PERSON_AND_ORGANIZATION_ASSIGNMENT ( #276, #264, ( #58 ) ) ;
#23 = DIRECTION ( 'NONE',  ( -1.000000000000000000, 0.000000000000000000, 0.000000000000000000 ) ) ;
#24 = LINE ( 'NONE', #178, #255 ) ;
#25 = AXIS2_PLACEMENT_3D ( 'NONE', #265, #436, #183 ) ;
#26 = EDGE_LOOP ( 'NONE', ( #463, #244, #49, #256 ) ) ;
#27 = DIRECTION ( 'NONE',  ( 0.000000000000000000, 0.000000000000000000, 1.000000000000000000 ) ) ;
#28 = MECHANICAL_CONTEXT ( 'NONE', #338, 'mechanical' ) ;
#29 = DIRECTION ( 'NONE',  ( -0.000000000000000000, 0.000000000000000000, 1.000000000000000000 ) ) ;
#30 =( NAMED_UNIT ( * ) PLANE_ANGLE_UNIT ( ) SI_UNIT ( $, .RADIAN. ) );
#31 = CARTESIAN_POINT ( 'NONE',  ( 0.7500000000000006661, 2.449293598294706513E-15, 2.500000000000000000 ) ) ;
#32 = ADVANCED_FACE ( 'NONE', ( #420 ), #55, .F. ) ;
#33 = COORDINATED_UNIVERSAL_TIME_OFFSET ( 6, 0, .BEHIND. ) ;
#34 = CARTESIAN_POINT ( 'NONE',  ( 19.25000000000000000, 3.750000000000000000, 2.500000000000000000 ) ) ;
#35 = CARTESIAN_POINT ( 'NONE',  ( -0.000000000000000000, -3.750000000000000000, 0.000000000000000000 ) ) ;
#36 = LOCAL_TIME ( 1, 32, 56.00000000000000000, #443 ) ;
#37 = PLANE ( 'NONE',  #390 ) ;
#38 = VECTOR ( 'NONE', #54, 1000.000000000000000 ) ;
#39 = ORIENTED_EDGE ( 'NONE', *, *, #124, .T. ) ;
#40 = LINE ( 'NONE', #369, #56 ) ;
#41 = ORIENTED_EDGE ( 'NONE', *, *, #218, .F. ) ;
#42 = FACE_OUTER_BOUND ( 'NONE', #249, .T. ) ;
#43 = EDGE_LOOP ( 'NONE', ( #285, #172 ) ) ;
#44 = LOCAL_TIME ( 1, 32, 56.00000000000000000, #115 ) ;
#45 = CARTESIAN_POINT ( 'NONE',  ( 19.25000000000000000, -3.750000000000000000, -2.899999999999999911 ) ) ;
#46 = ORIENTED_EDGE ( 'NONE', *, *, #161, .T. ) ;
#47 = APPROVAL ( #309, 'UNSPECIFIED' ) ;
#48 = DIRECTION ( 'NONE',  ( -0.000000000000000000, 0.000000000000000000, 1.000000000000000000 ) ) ;
#49 = ORIENTED_EDGE ( 'NONE', *, *, #3, .F. ) ;
#50 = CARTESIAN_POINT ( 'NONE',  ( -19.25000000000000000, 0.000000000000000000, 2.500000000000000000 ) ) ;
#51 = CARTESIAN_POINT ( 'NONE',  ( 15.89800000000000324, 4.304388569643117727E-15, -2.899999999999999911 ) ) ;
#52 = ADVANCED_FACE ( 'NONE', ( #442 ), #74, .F. ) ;
#53 = ADVANCED_FACE ( 'NONE', ( #399, #318 ), #232, .F. ) ;
#54 = DIRECTION ( 'NONE',  ( -0.000000000000000000, -0.000000000000000000, -1.000000000000000000 ) ) ;
#55 = CYLINDRICAL_SURFACE ( 'NONE', #275, 1.500000000000000222 ) ;
#56 = VECTOR ( 'NONE', #159, 1000.000000000000000 ) ;
#57 = DIRECTION ( 'NONE',  ( -0.000000000000000000, -0.000000000000000000, -1.000000000000000000 ) ) ;
#58 = PRODUCT_DEFINITION ( 'UNKNOWN', '', #252, #257 ) ;
#59 = VERTEX_POINT ( 'NONE', #34 ) ;
#60 = CARTESIAN_POINT ( 'NONE',  ( 0.7500000000000006661, 2.449293598294706513E-15, 0.000000000000000000 ) ) ;
#61 = VERTEX_POINT ( 'NONE', #400 ) ;
#62 = DIRECTION ( 'NONE',  ( 0.000000000000000000, 0.000000000000000000, 1.000000000000000000 ) ) ;
#63 = ORIENTED_EDGE ( 'NONE', *, *, #181, .F. ) ;
#64 = CIRCLE ( 'NONE', #132, 1.500000000000001332 ) ;
#65 = SECURITY_CLASSIFICATION_LEVEL ( 'unclassified' ) ;
#66 = CARTESIAN_POINT ( 'NONE',  ( 9.250000000000000000, -3.750000000000000000, -2.899999999999999911 ) ) ;
#67 = PERSON_AND_ORGANIZATION ( #141, #440 ) ;
#68 = CARTESIAN_POINT ( 'NONE',  ( -19.25000000000000000, -3.750000000000000000, 2.500000000000000000 ) ) ;
#69 = APPLICATION_PROTOCOL_DEFINITION ( 'international standard', 'config_control_design', 1994, #392 ) ;
#70 = EDGE_CURVE ( 'NONE', #100, #86, #466, .T. ) ;
#71 = CARTESIAN_POINT ( 'NONE',  ( 2.250000000000001332, 2.632990618166809235E-15, 2.500000000000000000 ) ) ;
#72 = AXIS2_PLACEMENT_3D ( 'NONE', #310, #108, #358 ) ;
#73 = PERSON_AND_ORGANIZATION ( #141, #440 ) ;
#74 = PLANE ( 'NONE',  #162 ) ;
#75 = CARTESIAN_POINT ( 'NONE',  ( 0.000000000000000000, -3.750000000000000000, 2.500000000000000000 ) ) ;
#76 = ORIENTED_EDGE ( 'NONE', *, *, #359, .T. ) ;
#77 = DIRECTION ( 'NONE',  ( -1.000000000000000000, 0.000000000000000000, 0.000000000000000000 ) ) ;
#78 = VERTEX_POINT ( 'NONE', #116 ) ;
#79 = CC_DESIGN_DATE_AND_TIME_ASSIGNMENT ( #270, #471, ( #58 ) ) ;
#80 = AXIS2_PLACEMENT_3D ( 'NONE', #509, #467, #13 ) ;
#81 = LINE ( 'NONE', #83, #6 ) ;
#82 = ORIENTED_EDGE ( 'NONE', *, *, #94, .F. ) ;
#83 = CARTESIAN_POINT ( 'NONE',  ( -18.25000000000000355, 4.336808689942017736E-16, 2.500000000000000000 ) ) ;
#84 = VERTEX_POINT ( 'NONE', #66 ) ;
#85 = DIRECTION ( 'NONE',  ( -1.000000000000000000, -0.000000000000000000, -0.000000000000000000 ) ) ;
#86 = VERTEX_POINT ( 'NONE', #514 ) ;
#87 = CC_DESIGN_APPROVAL ( #118, ( #252 ) ) ;
#88 = CARTESIAN_POINT ( 'NONE',  ( 14.39800000000000146, 4.120691549771014216E-15, -2.899999999999999911 ) ) ;
#89 = VECTOR ( 'NONE', #122, 1000.000000000000000 ) ;
#90 = ORIENTED_EDGE ( 'NONE', *, *, #487, .T. ) ;
#91 = CARTESIAN_POINT ( 'NONE',  ( 12.89799999999999969, 4.120691549771014216E-15, 2.500000000000000000 ) ) ;
#92 = ORIENTED_EDGE ( 'NONE', *, *, #148, .T. ) ;
#93 = ADVANCED_FACE ( 'NONE', ( #363, #224, #277 ), #146, .F. ) ;
#94 = EDGE_CURVE ( 'NONE', #180, #235, #302, .T. ) ;
#95 = DIRECTION ( 'NONE',  ( -1.000000000000000000, 0.000000000000000000, 0.000000000000000000 ) ) ;
#96 = ORIENTED_EDGE ( 'NONE', *, *, #238, .T. ) ;
#97 = DIRECTION ( 'NONE',  ( 1.000000000000000000, 0.000000000000000000, 0.000000000000000000 ) ) ;
#98 = EDGE_LOOP ( 'NONE', ( #465, #137, #280, #387 ) ) ;
#99 = DIRECTION ( 'NONE',  ( 0.000000000000000000, 1.000000000000000000, -0.000000000000000000 ) ) ;
#100 = VERTEX_POINT ( 'NONE', #393 ) ;
#101 = FACE_OUTER_BOUND ( 'NONE', #168, .T. ) ;
#102 = ORIENTED_EDGE ( 'NONE', *, *, #450, .T. ) ;
#103 = DIRECTION ( 'NONE',  ( -0.000000000000000000, -0.000000000000000000, -1.000000000000000000 ) ) ;
#104 = LOCAL_TIME ( 1, 32, 56.00000000000000000, #350 ) ;
#105 = AXIS2_PLACEMENT_3D ( 'NONE', #152, #111, #316 ) ;
#106 = AXIS2_PLACEMENT_3D ( 'NONE', #464, #332, #130 ) ;
#107 = APPROVAL_DATE_TIME ( #478, #47 ) ;
#108 = DIRECTION ( 'NONE',  ( -0.000000000000000000, 0.000000000000000000, 1.000000000000000000 ) ) ;
#109 = EDGE_CURVE ( 'NONE', #235, #180, #373, .T. ) ;
#110 =( LENGTH_UNIT ( ) NAMED_UNIT ( * ) SI_UNIT ( .MILLI., .METRE. ) );
#111 = DIRECTION ( 'NONE',  ( 0.000000000000000000, 0.000000000000000000, 1.000000000000000000 ) ) ;
#112 = ADVANCED_FACE ( 'NONE', ( #516 ), #482, .F. ) ;
#113 = CARTESIAN_POINT ( 'NONE',  ( -16.75000000000000000, 4.336808689942017736E-16, 0.000000000000000000 ) ) ;
#114 = VECTOR ( 'NONE', #523, 1000.000000000000000 ) ;
#115 = COORDINATED_UNIVERSAL_TIME_OFFSET ( 6, 0, .BEHIND. ) ;
#116 = CARTESIAN_POINT ( 'NONE',  ( 9.250000000000001776, -3.750000000000000000, 0.000000000000000000 ) ) ;
#117 = LINE ( 'NONE', #284, #354 ) ;
#118 = APPROVAL ( #438, 'UNSPECIFIED' ) ;
#119 = CARTESIAN_POINT ( 'NONE',  ( -16.75000000000000000, 4.336808689942017736E-16, 2.500000000000000000 ) ) ;
#120 = ORIENTED_EDGE ( 'NONE', *, *, #524, .T. ) ;
#121 = VECTOR ( 'NONE', #517, 1000.000000000000000 ) ;
#122 = DIRECTION ( 'NONE',  ( -0.000000000000000000, -0.000000000000000000, -1.000000000000000000 ) ) ;
#123 = EDGE_LOOP ( 'NONE', ( #413, #380, #96, #210 ) ) ;
#124 = EDGE_CURVE ( 'NONE', #86, #100, #229, .T. ) ;
#125 = EDGE_CURVE ( 'NONE', #446, #133, #444, .T. ) ;
#126 = CARTESIAN_POINT ( 'NONE',  ( 0.000000000000000000, 0.000000000000000000, 2.500000000000000000 ) ) ;
#127 = ORIENTED_EDGE ( 'NONE', *, *, #70, .F. ) ;
#128 = CARTESIAN_POINT ( 'NONE',  ( 0.000000000000000000, 3.750000000000000000, 2.500000000000000000 ) ) ;
#129 = ORIENTED_EDGE ( 'NONE', *, *, #296, .F. ) ;
#130 = DIRECTION ( 'NONE',  ( -1.000000000000000000, 0.000000000000000000, 0.000000000000000000 ) ) ;
#131 = AXIS2_PLACEMENT_3D ( 'NONE', #50, #209, #62 ) ;
#132 = AXIS2_PLACEMENT_3D ( 'NONE', #292, #459, #97 ) ;
#133 = VERTEX_POINT ( 'NONE', #68 ) ;
#134 = LINE ( 'NONE', #138, #290 ) ;
#135 = DIRECTION ( 'NONE',  ( -0.000000000000000000, -1.000000000000000000, -0.000000000000000000 ) ) ;
#136 = DIRECTION ( 'NONE',  ( -1.000000000000000000, 0.000000000000000000, 0.000000000000000000 ) ) ;
#137 = ORIENTED_EDGE ( 'NONE', *, *, #181, .T. ) ;
#138 = CARTESIAN_POINT ( 'NONE',  ( 9.250000000000000000, -3.750000000000000000, 0.000000000000000000 ) ) ;
#139 = EDGE_LOOP ( 'NONE', ( #176, #375, #2, #41, #492, #21 ) ) ;
#140 = AXIS2_PLACEMENT_3D ( 'NONE', #226, #269, #362 ) ;
#141 = PERSON ( 'UNSPECIFIED', 'UNSPECIFIED', 'UNSPECIFIED', ('UNSPECIFIED'), ('UNSPECIFIED'), ('UNSPECIFIED') ) ;
#142 = DIRECTION ( 'NONE',  ( 0.000000000000000000, 1.000000000000000000, -0.000000000000000000 ) ) ;
#143 = ORIENTED_EDGE ( 'NONE', *, *, #339, .F. ) ;
#144 = CARTESIAN_POINT ( 'NONE',  ( 9.250000000000001776, 3.750000000000000000, -2.899999999999999911 ) ) ;
#145 = PERSON_AND_ORGANIZATION ( #141, #440 ) ;
#146 = PLANE ( 'NONE',  #140 ) ;
#147 = EDGE_CURVE ( 'NONE', #428, #468, #475, .T. ) ;
#148 = EDGE_CURVE ( 'NONE', #78, #331, #184, .T. ) ;
#149 = APPROVAL_ROLE ( '' ) ;
#150 = DIRECTION ( 'NONE',  ( 1.000000000000000000, 0.000000000000000000, 0.000000000000000000 ) ) ;
#151 = APPROVAL_ROLE ( '' ) ;
#152 = CARTESIAN_POINT ( 'NONE',  ( 0.000000000000000000, 0.000000000000000000, -2.899999999999999911 ) ) ;
#153 = PERSON_AND_ORGANIZATION ( #141, #440 ) ;
#154 = CARTESIAN_POINT ( 'NONE',  ( 12.89799999999999969, 4.120691549771014216E-15, -2.899999999999999911 ) ) ;
#155 = VECTOR ( 'NONE', #495, 1000.000000000000000 ) ;
#156 = FACE_OUTER_BOUND ( 'NONE', #507, .T. ) ;
#157 = CARTESIAN_POINT ( 'NONE',  ( -19.25000000000000000, 3.750000000000000000, 2.500000000000000000 ) ) ;
#158 = VERTEX_POINT ( 'NONE', #154 ) ;
#159 = DIRECTION ( 'NONE',  ( -0.000000000000000000, -0.000000000000000000, -1.000000000000000000 ) ) ;
#160 = ORIENTED_EDGE ( 'NONE', *, *, #109, .F. ) ;
#161 = EDGE_CURVE ( 'NONE', #174, #7, #313, .T. ) ;
#162 = AXIS2_PLACEMENT_3D ( 'NONE', #439, #231, #27 ) ;
#163 = DIRECTION ( 'NONE',  ( -0.000000000000000000, -0.000000000000000000, -1.000000000000000000 ) ) ;
#164 = EDGE_LOOP ( 'NONE', ( #425, #9, #46, #343, #525, #372 ) ) ;
#165 = CYLINDRICAL_SURFACE ( 'NONE', #483, 1.500000000000001332 ) ;
#166 = ORIENTED_EDGE ( 'NONE', *, *, #273, .F. ) ;
#167 = DIRECTION ( 'NONE',  ( 2.312964634635742957E-16, 1.000000000000000000, 0.000000000000000000 ) ) ;
#168 = EDGE_LOOP ( 'NONE', ( #498, #377, #295, #102 ) ) ;
#169 = LINE ( 'NONE', #304, #405 ) ;
#170 = AXIS2_PLACEMENT_3D ( 'NONE', #520, #189, #477 ) ;
#171 = AXIS2_PLACEMENT_3D ( 'NONE', #294, #426, #95 ) ;
#172 = ORIENTED_EDGE ( 'NONE', *, *, #378, .F. ) ;
#173 = LINE ( 'NONE', #388, #267 ) ;
#174 = VERTEX_POINT ( 'NONE', #144 ) ;
#175 = DIRECTION ( 'NONE',  ( 1.000000000000000000, 0.000000000000000000, 0.000000000000000000 ) ) ;
#176 = ORIENTED_EDGE ( 'NONE', *, *, #148, .F. ) ;
#177 = LINE ( 'NONE', #254, #38 ) ;
#178 = CARTESIAN_POINT ( 'NONE',  ( 0.000000000000000000, 3.750000000000000000, 2.500000000000000000 ) ) ;
#179 = DIRECTION ( 'NONE',  ( 1.000000000000000000, 0.000000000000000000, 0.000000000000000000 ) ) ;
#180 = VERTEX_POINT ( 'NONE', #307 ) ;
#181 = EDGE_CURVE ( 'NONE', #235, #428, #472, .T. ) ;
#182 = DIRECTION ( 'NONE',  ( -0.000000000000000000, -0.000000000000000000, -1.000000000000000000 ) ) ;
#183 = DIRECTION ( 'NONE',  ( -1.000000000000000000, 0.000000000000000000, 0.000000000000000000 ) ) ;
#184 = LINE ( 'NONE', #35, #266 ) ;
#185 = EDGE_CURVE ( 'NONE', #133, #331, #433, .T. ) ;
#186 = VERTEX_POINT ( 'NONE', #195 ) ;
#187 = AXIS2_PLACEMENT_3D ( 'NONE', #113, #191, #397 ) ;
#188 = CALENDAR_DATE ( 2026, 1, 6 ) ;
#189 = DIRECTION ( 'NONE',  ( -0.000000000000000000, 0.000000000000000000, 1.000000000000000000 ) ) ;
#190 = CALENDAR_DATE ( 2026, 1, 6 ) ;
#191 = DIRECTION ( 'NONE',  ( -0.000000000000000000, 0.000000000000000000, 1.000000000000000000 ) ) ;
#192 = CC_DESIGN_PERSON_AND_ORGANIZATION_ASSIGNMENT ( #73, #431, ( #252 ) ) ;
#193 = DIRECTION ( 'NONE',  ( -0.000000000000000000, -0.000000000000000000, 1.000000000000000000 ) ) ;
#194 = VECTOR ( 'NONE', #85, 1000.000000000000000 ) ;
#195 = CARTESIAN_POINT ( 'NONE',  ( -19.25000000000000000, 3.750000000000000000, 0.000000000000000000 ) ) ;
#196 = ORIENTED_EDGE ( 'NONE', *, *, #216, .T. ) ;
#197 = EDGE_CURVE ( 'NONE', #158, #19, #245, .T. ) ;
#198 = CARTESIAN_POINT ( 'NONE',  ( -0.7499999999999995559, 2.449293598294706513E-15, 2.500000000000000000 ) ) ;
#199 = EDGE_CURVE ( 'NONE', #289, #84, #448, .T. ) ;
#200 = VERTEX_POINT ( 'NONE', #406 ) ;
#201 = DIRECTION ( 'NONE',  ( 1.000000000000000000, -0.000000000000000000, -0.000000000000000000 ) ) ;
#202 = ORIENTED_EDGE ( 'NONE', *, *, #524, .F. ) ;
#203 = APPROVAL_PERSON_ORGANIZATION ( #511, #118, #151 ) ;
#204 = AXIS2_PLACEMENT_3D ( 'NONE', #31, #271, #150 ) ;
#205 = DIRECTION ( 'NONE',  ( -0.000000000000000000, -0.000000000000000000, -1.000000000000000000 ) ) ;
#206 = VERTEX_POINT ( 'NONE', #157 ) ;
#207 = CARTESIAN_POINT ( 'NONE',  ( 9.250000000000000000, -3.750000000000000000, -2.899999999999999911 ) ) ;
#208 = ORIENTED_EDGE ( 'NONE', *, *, #253, .F. ) ;
#209 = DIRECTION ( 'NONE',  ( -1.000000000000000000, 0.000000000000000000, 0.000000000000000000 ) ) ;
#210 = ORIENTED_EDGE ( 'NONE', *, *, #18, .T. ) ;
#211 = PRODUCT ( 'motor_support1', 'motor_support1', '', ( #28 ) ) ;
#212 = CARTESIAN_POINT ( 'NONE',  ( 19.25000000000000000, 3.750000000000000000, 2.500000000000000000 ) ) ;
#213 = VECTOR ( 'NONE', #379, 1000.000000000000000 ) ;
#214 = VERTEX_POINT ( 'NONE', #325 ) ;
#215 = CARTESIAN_POINT ( 'NONE',  ( 9.250000000000000000, -3.750000000000000000, -2.899999999999999911 ) ) ;
#216 = EDGE_CURVE ( 'NONE', #84, #78, #286, .T. ) ;
#217 = ORIENTED_EDGE ( 'NONE', *, *, #70, .T. ) ;
#218 = EDGE_CURVE ( 'NONE', #446, #289, #40, .T. ) ;
#219 = CARTESIAN_POINT ( 'NONE',  ( 19.25000000000000000, 0.000000000000000000, 2.500000000000000000 ) ) ;
#220 = EDGE_LOOP ( 'NONE', ( #82, #160 ) ) ;
#221 = CALENDAR_DATE ( 2026, 1, 6 ) ;
#222 = LINE ( 'NONE', #351, #382 ) ;
#223 = CIRCLE ( 'NONE', #291, 1.500000000000001332 ) ;
#224 = FACE_BOUND ( 'NONE', #242, .T. ) ;
#225 = CALENDAR_DATE ( 2026, 1, 6 ) ;
#226 = CARTESIAN_POINT ( 'NONE',  ( 0.000000000000000000, 0.000000000000000000, 0.000000000000000000 ) ) ;
#227 = COORDINATED_UNIVERSAL_TIME_OFFSET ( 6, 0, .BEHIND. ) ;
#228 = CARTESIAN_POINT ( 'NONE',  ( -19.25000000000000000, -3.750000000000000000, 2.500000000000000000 ) ) ;
#229 = CIRCLE ( 'NONE', #72, 1.500000000000001332 ) ;
#230 = PERSON_AND_ORGANIZATION ( #141, #440 ) ;
#231 = DIRECTION ( 'NONE',  ( -1.000000000000000000, 0.000000000000000000, 0.000000000000000000 ) ) ;
#232 = PLANE ( 'NONE',  #105 ) ;
#233 = APPROVAL_DATE_TIME ( #447, #437 ) ;
#234 = DIRECTION ( 'NONE',  ( -1.000000000000000000, 0.000000000000000000, 0.000000000000000000 ) ) ;
#235 = VERTEX_POINT ( 'NONE', #239 ) ;
#236 = CIRCLE ( 'NONE', #80, 1.500000000000001332 ) ;
#237 = EDGE_CURVE ( 'NONE', #180, #468, #241, .T. ) ;
#238 = EDGE_CURVE ( 'NONE', #174, #214, #117, .T. ) ;
#239 = CARTESIAN_POINT ( 'NONE',  ( 2.250000000000001332, 2.632990618166809235E-15, 2.500000000000000000 ) ) ;
#240 = ORIENTED_EDGE ( 'NONE', *, *, #341, .F. ) ;
#241 = LINE ( 'NONE', #198, #114 ) ;
#242 = EDGE_LOOP ( 'NONE', ( #217, #39 ) ) ;
#243 = CARTESIAN_POINT ( 'NONE',  ( 15.89800000000000324, 4.304388569643117727E-15, 2.500000000000000000 ) ) ;
#244 = ORIENTED_EDGE ( 'NONE', *, *, #10, .T. ) ;
#245 = CIRCLE ( 'NONE', #458, 1.500000000000001332 ) ;
#246 = FACE_OUTER_BOUND ( 'NONE', #26, .T. ) ;
#247 = ORIENTED_EDGE ( 'NONE', *, *, #518, .F. ) ;
#248 = DIRECTION ( 'NONE',  ( -0.000000000000000000, 0.000000000000000000, 1.000000000000000000 ) ) ;
#249 = EDGE_LOOP ( 'NONE', ( #423, #416, #323, #202 ) ) ;
#250 = CARTESIAN_POINT ( 'NONE',  ( 2.250000000000001332, 2.632990618166809235E-15, 0.000000000000000000 ) ) ;
#251 = EDGE_LOOP ( 'NONE', ( #303, #305, #12, #196 ) ) ;
#252 = PRODUCT_DEFINITION_FORMATION_WITH_SPECIFIED_SOURCE ( 'ANY', '', #211, .NOT_KNOWN. ) ;
#253 = EDGE_CURVE ( 'NONE', #200, #19, #445, .T. ) ;
#254 = CARTESIAN_POINT ( 'NONE',  ( -19.25000000000000000, 3.750000000000000000, 2.500000000000000000 ) ) ;
#255 = VECTOR ( 'NONE', #510, 1000.000000000000000 ) ;
#256 = ORIENTED_EDGE ( 'NONE', *, *, #125, .F. ) ;
#257 = DESIGN_CONTEXT ( 'detailed design', #392, 'design' ) ;
#258 = CARTESIAN_POINT ( 'NONE',  ( 14.39800000000000146, 4.120691549771014216E-15, 2.500000000000000000 ) ) ;
#259 = PRODUCT_RELATED_PRODUCT_CATEGORY ( 'detail', '', ( #211 ) ) ;
#260 = EDGE_LOOP ( 'NONE', ( #63, #494, #287, #391 ) ) ;
#261 = CYLINDRICAL_SURFACE ( 'NONE', #171, 1.500000000000000222 ) ;
#262 = ORIENTED_EDGE ( 'NONE', *, *, #296, .T. ) ;
#263 = AXIS2_PLACEMENT_3D ( 'NONE', #306, #312, #179 ) ;
#264 = PERSON_AND_ORGANIZATION_ROLE ( 'creator' ) ;
#265 = CARTESIAN_POINT ( 'NONE',  ( -16.75000000000000000, 4.336808689942017736E-16, 2.500000000000000000 ) ) ;
#266 = VECTOR ( 'NONE', #353, 1000.000000000000000 ) ;
#267 = VECTOR ( 'NONE', #23, 1000.000000000000000 ) ;
#268 =( NAMED_UNIT ( * ) SI_UNIT ( $, .STERADIAN. ) SOLID_ANGLE_UNIT ( ) );
#269 = DIRECTION ( 'NONE',  ( -0.000000000000000000, 0.000000000000000000, 1.000000000000000000 ) ) ;
#270 = DATE_AND_TIME ( #513, #104 ) ;
#271 = DIRECTION ( 'NONE',  ( -0.000000000000000000, 0.000000000000000000, 1.000000000000000000 ) ) ;
#272 = PERSON_AND_ORGANIZATION ( #141, #440 ) ;
#273 = EDGE_CURVE ( 'NONE', #200, #505, #223, .T. ) ;
#274 = DIRECTION ( 'NONE',  ( 1.000000000000000000, 0.000000000000000000, 0.000000000000000000 ) ) ;
#275 = AXIS2_PLACEMENT_3D ( 'NONE', #385, #395, #352 ) ;
#276 = PERSON_AND_ORGANIZATION ( #141, #440 ) ;
#277 = FACE_OUTER_BOUND ( 'NONE', #326, .T. ) ;
#278 = DIRECTION ( 'NONE',  ( 1.000000000000000000, 0.000000000000000000, 0.000000000000000000 ) ) ;
#279 = CARTESIAN_POINT ( 'NONE',  ( 0.000000000000000000, -3.750000000000000000, 2.500000000000000000 ) ) ;
#280 = ORIENTED_EDGE ( 'NONE', *, *, #355, .F. ) ;
#281 = CC_DESIGN_SECURITY_CLASSIFICATION ( #515, ( #252 ) ) ;
#282 = VECTOR ( 'NONE', #1, 1000.000000000000000 ) ;
#283 = ADVANCED_FACE ( 'NONE', ( #374 ), #451, .F. ) ;
#284 = CARTESIAN_POINT ( 'NONE',  ( 19.25000000000000000, 3.750000000000000000, -2.899999999999999911 ) ) ;
#285 = ORIENTED_EDGE ( 'NONE', *, *, #487, .F. ) ;
#286 = LINE ( 'NONE', #207, #282 ) ;
#287 = ORIENTED_EDGE ( 'NONE', *, *, #237, .T. ) ;
#288 = FACE_BOUND ( 'NONE', #43, .T. ) ;
#289 = VERTEX_POINT ( 'NONE', #45 ) ;
#290 = VECTOR ( 'NONE', #469, 1000.000000000000000 ) ;
#291 = AXIS2_PLACEMENT_3D ( 'NONE', #367, #454, #278 ) ;
#292 = CARTESIAN_POINT ( 'NONE',  ( -16.75000000000000000, 4.336808689942017736E-16, 2.500000000000000000 ) ) ;
#293 = LINE ( 'NONE', #418, #491 ) ;
#294 = CARTESIAN_POINT ( 'NONE',  ( 0.7500000000000006661, 2.449293598294706513E-15, 2.500000000000000000 ) ) ;
#295 = ORIENTED_EDGE ( 'NONE', *, *, #3, .T. ) ;
#296 = EDGE_CURVE ( 'NONE', #457, #100, #81, .T. ) ;
#297 = ADVANCED_FACE ( 'NONE', ( #8 ), #328, .T. ) ;
#298 = LINE ( 'NONE', #219, #500 ) ;
#299 = ORIENTED_EDGE ( 'NONE', *, *, #273, .T. ) ;
#300 = APPROVAL_PERSON_ORGANIZATION ( #145, #47, #149 ) ;
#301 = DIRECTION ( 'NONE',  ( 2.312964634635742957E-16, 1.000000000000000000, 0.000000000000000000 ) ) ;
#302 = CIRCLE ( 'NONE', #204, 1.500000000000000444 ) ;
#303 = ORIENTED_EDGE ( 'NONE', *, *, #341, .T. ) ;
#304 = CARTESIAN_POINT ( 'NONE',  ( -19.25000000000000000, 0.000000000000000000, 0.000000000000000000 ) ) ;
#305 = ORIENTED_EDGE ( 'NONE', *, *, #161, .F. ) ;
#306 = CARTESIAN_POINT ( 'NONE',  ( 0.000000000000000000, 0.000000000000000000, 0.000000000000000000 ) ) ;
#307 = CARTESIAN_POINT ( 'NONE',  ( -0.7499999999999995559, 2.449293598294706513E-15, 2.500000000000000000 ) ) ;
#308 = ADVANCED_FACE ( 'NONE', ( #42 ), #165, .F. ) ;
#309 = APPROVAL_STATUS ( 'not_yet_approved' ) ;
#310 = CARTESIAN_POINT ( 'NONE',  ( -16.75000000000000000, 4.336808689942017736E-16, 0.000000000000000000 ) ) ;
#311 = AXIS2_PLACEMENT_3D ( 'NONE', #424, #346, #136 ) ;
#312 = DIRECTION ( 'NONE',  ( 0.000000000000000000, 0.000000000000000000, 1.000000000000000000 ) ) ;
#313 = LINE ( 'NONE', #479, #347 ) ;
#314 = ADVANCED_FACE ( 'NONE', ( #288, #246, #321, #330 ), #456, .T. ) ;
#315 = CARTESIAN_POINT ( 'NONE',  ( 12.89799999999999969, 4.120691549771014216E-15, 2.500000000000000000 ) ) ;
#316 = DIRECTION ( 'NONE',  ( 1.000000000000000000, 0.000000000000000000, -0.000000000000000000 ) ) ;
#317 = APPROVAL_STATUS ( 'not_yet_approved' ) ;
#318 = FACE_BOUND ( 'NONE', #488, .T. ) ;
#319 = AXIS2_PLACEMENT_3D ( 'NONE', #126, #48, #522 ) ;
#320 = ADVANCED_FACE ( 'NONE', ( #156 ), #486, .F. ) ;
#321 = FACE_BOUND ( 'NONE', #452, .T. ) ;
#322 = DIRECTION ( 'NONE',  ( 0.000000000000000000, -1.000000000000000000, 0.000000000000000000 ) ) ;
#323 = ORIENTED_EDGE ( 'NONE', *, *, #474, .T. ) ;
#324 = ADVANCED_FACE ( 'NONE', ( #403 ), #37, .F. ) ;
#325 = CARTESIAN_POINT ( 'NONE',  ( 19.25000000000000000, 3.750000000000000000, -2.899999999999999911 ) ) ;
#326 = EDGE_LOOP ( 'NONE', ( #240, #92, #404, #411 ) ) ;
#327 = VECTOR ( 'NONE', #103, 1000.000000000000000 ) ;
#328 = PLANE ( 'NONE',  #421 ) ;
#329 = ORIENTED_EDGE ( 'NONE', *, *, #410, .F. ) ;
#330 = FACE_BOUND ( 'NONE', #220, .T. ) ;
#331 = VERTEX_POINT ( 'NONE', #386 ) ;
#332 = DIRECTION ( 'NONE',  ( 0.000000000000000000, 0.000000000000000000, -1.000000000000000000 ) ) ;
#333 = ORIENTED_EDGE ( 'NONE', *, *, #197, .T. ) ;
#334 = APPROVAL_PERSON_ORGANIZATION ( #153, #437, #481 ) ;
#335 = AXIS2_PLACEMENT_3D ( 'NONE', #119, #484, #234 ) ;
#336 = CIRCLE ( 'NONE', #106, 1.500000000000001332 ) ;
#337 = CYLINDRICAL_SURFACE ( 'NONE', #311, 1.500000000000001332 ) ;
#338 = APPLICATION_CONTEXT ( 'configuration controlled 3d designs of mechanical parts and assemblies' ) ;
#339 = EDGE_CURVE ( 'NONE', #505, #200, #521, .T. ) ;
#340 = EDGE_LOOP ( 'NONE', ( #90, #76, #127, #129 ) ) ;
#341 = EDGE_CURVE ( 'NONE', #78, #7, #134, .T. ) ;
#342 = FACE_OUTER_BOUND ( 'NONE', #260, .T. ) ;
#343 = ORIENTED_EDGE ( 'NONE', *, *, #434, .T. ) ;
#344 = DIRECTION ( 'NONE',  ( 1.000000000000000000, 0.000000000000000000, 0.000000000000000000 ) ) ;
#345 = ORIENTED_EDGE ( 'NONE', *, *, #378, .T. ) ;
#346 = DIRECTION ( 'NONE',  ( -0.000000000000000000, -0.000000000000000000, -1.000000000000000000 ) ) ;
#347 = VECTOR ( 'NONE', #193, 1000.000000000000000 ) ;
#348 = ORIENTED_EDGE ( 'NONE', *, *, #18, .F. ) ;
#349 = ADVANCED_FACE ( 'NONE', ( #17 ), #337, .F. ) ;
#350 = COORDINATED_UNIVERSAL_TIME_OFFSET ( 6, 0, .BEHIND. ) ;
#351 = CARTESIAN_POINT ( 'NONE',  ( -19.25000000000000000, 0.000000000000000000, 2.500000000000000000 ) ) ;
#352 = DIRECTION ( 'NONE',  ( -1.000000000000000000, 0.000000000000000000, 0.000000000000000000 ) ) ;
#353 = DIRECTION ( 'NONE',  ( -1.000000000000000000, 0.000000000000000000, 0.000000000000000000 ) ) ;
#354 = VECTOR ( 'NONE', #201, 1000.000000000000000 ) ;
#355 = EDGE_CURVE ( 'NONE', #468, #428, #364, .T. ) ;
#356 = ADVANCED_FACE ( 'NONE', ( #101 ), #504, .T. ) ;
#357 = APPROVAL_DATE_TIME ( #396, #118 ) ;
#358 = DIRECTION ( 'NONE',  ( 1.000000000000000000, 0.000000000000000000, 0.000000000000000000 ) ) ;
#359 = EDGE_CURVE ( 'NONE', #61, #86, #497, .T. ) ;
#360 = ADVANCED_BREP_SHAPE_REPRESENTATION ( 'motor_support1', ( #427, #263 ), #14 ) ;
#361 = DATE_AND_TIME ( #190, #489 ) ;
#362 = DIRECTION ( 'NONE',  ( 1.000000000000000000, 0.000000000000000000, 0.000000000000000000 ) ) ;
#363 = FACE_BOUND ( 'NONE', #512, .T. ) ;
#364 = CIRCLE ( 'NONE', #499, 1.500000000000000444 ) ;
#365 = VECTOR ( 'NONE', #167, 1000.000000000000000 ) ;
#366 = CC_DESIGN_PERSON_AND_ORGANIZATION_ASSIGNMENT ( #230, #398, ( #515 ) ) ;
#367 = CARTESIAN_POINT ( 'NONE',  ( 14.39800000000000146, 4.120691549771014216E-15, 2.500000000000000000 ) ) ;
#368 = ORIENTED_EDGE ( 'NONE', *, *, #359, .F. ) ;
#369 = CARTESIAN_POINT ( 'NONE',  ( 19.25000000000000000, -3.750000000000000000, 2.500000000000000000 ) ) ;
#370 = ORIENTED_EDGE ( 'NONE', *, *, #147, .T. ) ;
#371 = DIRECTION ( 'NONE',  ( 0.000000000000000000, -0.000000000000000000, -1.000000000000000000 ) ) ;
#372 = ORIENTED_EDGE ( 'NONE', *, *, #10, .F. ) ;
#373 = CIRCLE ( 'NONE', #170, 1.500000000000000444 ) ;
#374 = FACE_OUTER_BOUND ( 'NONE', #164, .T. ) ;
#375 = ORIENTED_EDGE ( 'NONE', *, *, #216, .F. ) ;
#376 = CARTESIAN_POINT ( 'NONE',  ( 19.25000000000000000, -3.750000000000000000, 2.500000000000000000 ) ) ;
#377 = ORIENTED_EDGE ( 'NONE', *, *, #185, .F. ) ;
#378 = EDGE_CURVE ( 'NONE', #61, #457, #236, .T. ) ;
#379 = DIRECTION ( 'NONE',  ( -0.000000000000000000, -0.000000000000000000, -1.000000000000000000 ) ) ;
#380 = ORIENTED_EDGE ( 'NONE', *, *, #473, .T. ) ;
#381 = CC_DESIGN_APPROVAL ( #437, ( #515 ) ) ;
#382 = VECTOR ( 'NONE', #15, 1000.000000000000000 ) ;
#383 = LINE ( 'NONE', #315, #429 ) ;
#384 = EDGE_CURVE ( 'NONE', #331, #186, #169, .T. ) ;
#385 = CARTESIAN_POINT ( 'NONE',  ( 0.7500000000000006661, 2.449293598294706513E-15, 2.500000000000000000 ) ) ;
#386 = CARTESIAN_POINT ( 'NONE',  ( -19.25000000000000000, -3.750000000000000000, 0.000000000000000000 ) ) ;
#387 = ORIENTED_EDGE ( 'NONE', *, *, #237, .F. ) ;
#388 = CARTESIAN_POINT ( 'NONE',  ( 0.000000000000000000, 3.750000000000000000, 0.000000000000000000 ) ) ;
#389 = ORIENTED_EDGE ( 'NONE', *, *, #124, .F. ) ;
#390 = AXIS2_PLACEMENT_3D ( 'NONE', #462, #501, #301 ) ;
#391 = ORIENTED_EDGE ( 'NONE', *, *, #147, .F. ) ;
#392 = APPLICATION_CONTEXT ( 'configuration controlled 3d designs of mechanical parts and assemblies' ) ;
#393 = CARTESIAN_POINT ( 'NONE',  ( -18.25000000000000355, 4.336808689942017736E-16, 0.000000000000000000 ) ) ;
#394 = ADVANCED_FACE ( 'NONE', ( #342 ), #261, .F. ) ;
#395 = DIRECTION ( 'NONE',  ( -0.000000000000000000, -0.000000000000000000, -1.000000000000000000 ) ) ;
#396 = DATE_AND_TIME ( #188, #402 ) ;
#397 = DIRECTION ( 'NONE',  ( 1.000000000000000000, 0.000000000000000000, 0.000000000000000000 ) ) ;
#398 = PERSON_AND_ORGANIZATION_ROLE ( 'classification_officer' ) ;
#399 = FACE_OUTER_BOUND ( 'NONE', #123, .T. ) ;
#400 = CARTESIAN_POINT ( 'NONE',  ( -15.25000000000000000, 6.173778888663050875E-16, 2.500000000000000000 ) ) ;
#401 = CC_DESIGN_DATE_AND_TIME_ASSIGNMENT ( #361, #519, ( #515 ) ) ;
#402 = LOCAL_TIME ( 1, 32, 56.00000000000000000, #227 ) ;
#403 = FACE_OUTER_BOUND ( 'NONE', #251, .T. ) ;
#404 = ORIENTED_EDGE ( 'NONE', *, *, #384, .T. ) ;
#405 = VECTOR ( 'NONE', #142, 1000.000000000000000 ) ;
#406 = CARTESIAN_POINT ( 'NONE',  ( 15.89800000000000324, 4.304388569643117727E-15, 2.500000000000000000 ) ) ;
#407 = PRODUCT_DEFINITION_SHAPE ( 'NONE', 'NONE',  #58 ) ;
#408 = ORIENTED_EDGE ( 'NONE', *, *, #355, .T. ) ;
#409 = DIRECTION ( 'NONE',  ( 0.000000000000000000, -0.000000000000000000, -1.000000000000000000 ) ) ;
#410 = EDGE_CURVE ( 'NONE', #446, #59, #298, .T. ) ;
#411 = ORIENTED_EDGE ( 'NONE', *, *, #434, .F. ) ;
#412 = DIRECTION ( 'NONE',  ( 0.000000000000000000, -1.000000000000000000, 0.000000000000000000 ) ) ;
#413 = ORIENTED_EDGE ( 'NONE', *, *, #199, .T. ) ;
#414 = AXIS2_PLACEMENT_3D ( 'NONE', #128, #412, #371 ) ;
#415 = CARTESIAN_POINT ( 'NONE',  ( 9.250000000000000000, -3.750000000000000000, -2.899999999999999911 ) ) ;
#416 = ORIENTED_EDGE ( 'NONE', *, *, #253, .T. ) ;
#417 = DIRECTION ( 'NONE',  ( -0.000000000000000000, 0.000000000000000000, 1.000000000000000000 ) ) ;
#418 = CARTESIAN_POINT ( 'NONE',  ( 19.25000000000000000, -3.750000000000000000, -2.899999999999999911 ) ) ;
#419 = LINE ( 'NONE', #215, #365 ) ;
#420 = FACE_OUTER_BOUND ( 'NONE', #98, .T. ) ;
#421 = AXIS2_PLACEMENT_3D ( 'NONE', #279, #322, #409 ) ;
#422 = LINE ( 'NONE', #212, #432 ) ;
#423 = ORIENTED_EDGE ( 'NONE', *, *, #339, .T. ) ;
#424 = CARTESIAN_POINT ( 'NONE',  ( 14.39800000000000146, 4.120691549771014216E-15, 2.500000000000000000 ) ) ;
#425 = ORIENTED_EDGE ( 'NONE', *, *, #518, .T. ) ;
#426 = DIRECTION ( 'NONE',  ( -0.000000000000000000, -0.000000000000000000, -1.000000000000000000 ) ) ;
#427 = MANIFOLD_SOLID_BREP ( 'Boss-Extrude2', #508 ) ;
#428 = VERTEX_POINT ( 'NONE', #250 ) ;
#429 = VECTOR ( 'NONE', #182, 1000.000000000000000 ) ;
#430 = AXIS2_PLACEMENT_3D ( 'NONE', #258, #248, #175 ) ;
#431 = PERSON_AND_ORGANIZATION_ROLE ( 'design_supplier' ) ;
#432 = VECTOR ( 'NONE', #57, 1000.000000000000000 ) ;
#433 = LINE ( 'NONE', #228, #155 ) ;
#434 = EDGE_CURVE ( 'NONE', #7, #186, #173, .T. ) ;
#435 = APPLICATION_PROTOCOL_DEFINITION ( 'international standard', 'config_control_design', 1994, #338 ) ;
#436 = DIRECTION ( 'NONE',  ( -0.000000000000000000, -0.000000000000000000, -1.000000000000000000 ) ) ;
#437 = APPROVAL ( #317, 'UNSPECIFIED' ) ;
#438 = APPROVAL_STATUS ( 'not_yet_approved' ) ;
#439 = CARTESIAN_POINT ( 'NONE',  ( 19.25000000000000000, 0.000000000000000000, 2.500000000000000000 ) ) ;
#440 = ORGANIZATION ( 'UNSPECIFIED', 'UNSPECIFIED', '' ) ;
#441 = PERSON_AND_ORGANIZATION_ROLE ( 'creator' ) ;
#442 = FACE_OUTER_BOUND ( 'NONE', #449, .T. ) ;
#443 = COORDINATED_UNIVERSAL_TIME_OFFSET ( 6, 0, .BEHIND. ) ;
#444 = LINE ( 'NONE', #75, #121 ) ;
#445 = LINE ( 'NONE', #243, #89 ) ;
#446 = VERTEX_POINT ( 'NONE', #376 ) ;
#447 = DATE_AND_TIME ( #221, #44 ) ;
#448 = LINE ( 'NONE', #415, #194 ) ;
#449 = EDGE_LOOP ( 'NONE', ( #470, #348, #247, #329 ) ) ;
#450 = EDGE_CURVE ( 'NONE', #206, #186, #177, .T. ) ;
#451 = PLANE ( 'NONE',  #414 ) ;
#452 = EDGE_LOOP ( 'NONE', ( #143, #166 ) ) ;
#453 = CC_DESIGN_PERSON_AND_ORGANIZATION_ASSIGNMENT ( #67, #476, ( #211 ) ) ;
#454 = DIRECTION ( 'NONE',  ( -0.000000000000000000, 0.000000000000000000, 1.000000000000000000 ) ) ;
#455 = ORIENTED_EDGE ( 'NONE', *, *, #474, .F. ) ;
#456 = PLANE ( 'NONE',  #319 ) ;
#457 = VERTEX_POINT ( 'NONE', #506 ) ;
#458 = AXIS2_PLACEMENT_3D ( 'NONE', #88, #5, #490 ) ;
#459 = DIRECTION ( 'NONE',  ( -0.000000000000000000, 0.000000000000000000, 1.000000000000000000 ) ) ;
#460 = CARTESIAN_POINT ( 'NONE',  ( 9.250000000000001776, 3.750000000000000000, 0.000000000000000000 ) ) ;
#461 = CC_DESIGN_PERSON_AND_ORGANIZATION_ASSIGNMENT ( #272, #441, ( #252 ) ) ;
#462 = CARTESIAN_POINT ( 'NONE',  ( 9.250000000000000000, -3.750000000000000000, -2.899999999999999911 ) ) ;
#463 = ORIENTED_EDGE ( 'NONE', *, *, #410, .T. ) ;
#464 = CARTESIAN_POINT ( 'NONE',  ( 14.39800000000000146, 4.120691549771014216E-15, -2.899999999999999911 ) ) ;
#465 = ORIENTED_EDGE ( 'NONE', *, *, #94, .T. ) ;
#466 = CIRCLE ( 'NONE', #187, 1.500000000000001332 ) ;
#467 = DIRECTION ( 'NONE',  ( -0.000000000000000000, 0.000000000000000000, 1.000000000000000000 ) ) ;
#468 = VERTEX_POINT ( 'NONE', #11 ) ;
#469 = DIRECTION ( 'NONE',  ( 2.312964634635742957E-16, 1.000000000000000000, 0.000000000000000000 ) ) ;
#470 = ORIENTED_EDGE ( 'NONE', *, *, #218, .T. ) ;
#471 = DATE_TIME_ROLE ( 'creation_date' ) ;
#472 = LINE ( 'NONE', #71, #327 ) ;
#473 = EDGE_CURVE ( 'NONE', #84, #174, #419, .T. ) ;
#474 = EDGE_CURVE ( 'NONE', #19, #158, #336, .T. ) ;
#475 = CIRCLE ( 'NONE', #16, 1.500000000000000444 ) ;
#476 = PERSON_AND_ORGANIZATION_ROLE ( 'design_owner' ) ;
#477 = DIRECTION ( 'NONE',  ( 1.000000000000000000, 0.000000000000000000, 0.000000000000000000 ) ) ;
#478 = DATE_AND_TIME ( #225, #36 ) ;
#479 = CARTESIAN_POINT ( 'NONE',  ( 9.250000000000001776, 3.750000000000000000, -2.899999999999999911 ) ) ;
#480 = CARTESIAN_POINT ( 'NONE',  ( 0.7500000000000006661, 2.449293598294706513E-15, 0.000000000000000000 ) ) ;
#481 = APPROVAL_ROLE ( '' ) ;
#482 = CYLINDRICAL_SURFACE ( 'NONE', #25, 1.500000000000001332 ) ;
#483 = AXIS2_PLACEMENT_3D ( 'NONE', #493, #163, #77 ) ;
#484 = DIRECTION ( 'NONE',  ( -0.000000000000000000, -0.000000000000000000, -1.000000000000000000 ) ) ;
#485 = SHAPE_DEFINITION_REPRESENTATION ( #407, #360 ) ;
#486 = CYLINDRICAL_SURFACE ( 'NONE', #335, 1.500000000000001332 ) ;
#487 = EDGE_CURVE ( 'NONE', #457, #61, #64, .T. ) ;
#488 = EDGE_LOOP ( 'NONE', ( #496, #455 ) ) ;
#489 = LOCAL_TIME ( 1, 32, 56.00000000000000000, #33 ) ;
#490 = DIRECTION ( 'NONE',  ( -1.000000000000000000, 0.000000000000000000, 0.000000000000000000 ) ) ;
#491 = VECTOR ( 'NONE', #135, 1000.000000000000000 ) ;
#492 = ORIENTED_EDGE ( 'NONE', *, *, #125, .T. ) ;
#493 = CARTESIAN_POINT ( 'NONE',  ( 14.39800000000000146, 4.120691549771014216E-15, 2.500000000000000000 ) ) ;
#494 = ORIENTED_EDGE ( 'NONE', *, *, #109, .T. ) ;
#495 = DIRECTION ( 'NONE',  ( -0.000000000000000000, -0.000000000000000000, -1.000000000000000000 ) ) ;
#496 = ORIENTED_EDGE ( 'NONE', *, *, #197, .F. ) ;
#497 = LINE ( 'NONE', #20, #213 ) ;
#498 = ORIENTED_EDGE ( 'NONE', *, *, #384, .F. ) ;
#499 = AXIS2_PLACEMENT_3D ( 'NONE', #60, #417, #344 ) ;
#500 = VECTOR ( 'NONE', #99, 1000.000000000000000 ) ;
#501 = DIRECTION ( 'NONE',  ( 1.000000000000000000, -2.312964634635742957E-16, 0.000000000000000000 ) ) ;
#502 = EDGE_LOOP ( 'NONE', ( #208, #299, #120, #333 ) ) ;
#503 = UNCERTAINTY_MEASURE_WITH_UNIT (LENGTH_MEASURE( 1.000000000000000082E-05 ), #110, 'distance_accuracy_value', 'NONE');
#504 = PLANE ( 'NONE',  #131 ) ;
#505 = VERTEX_POINT ( 'NONE', #91 ) ;
#506 = CARTESIAN_POINT ( 'NONE',  ( -18.25000000000000355, 4.336808689942017736E-16, 2.500000000000000000 ) ) ;
#507 = EDGE_LOOP ( 'NONE', ( #368, #345, #262, #389 ) ) ;
#508 = CLOSED_SHELL ( 'NONE', ( #32, #112, #308, #93, #52, #283, #356, #349, #297, #320, #394, #314, #53, #324 ) ) ;
#509 = CARTESIAN_POINT ( 'NONE',  ( -16.75000000000000000, 4.336808689942017736E-16, 2.500000000000000000 ) ) ;
#510 = DIRECTION ( 'NONE',  ( -1.000000000000000000, 0.000000000000000000, 0.000000000000000000 ) ) ;
#511 = PERSON_AND_ORGANIZATION ( #141, #440 ) ;
#512 = EDGE_LOOP ( 'NONE', ( #408, #370 ) ) ;
#513 = CALENDAR_DATE ( 2026, 1, 6 ) ;
#514 = CARTESIAN_POINT ( 'NONE',  ( -15.25000000000000000, 6.173778888663050875E-16, 0.000000000000000000 ) ) ;
#515 = SECURITY_CLASSIFICATION ( '', '', #65 ) ;
#516 = FACE_OUTER_BOUND ( 'NONE', #340, .T. ) ;
#517 = DIRECTION ( 'NONE',  ( -1.000000000000000000, 0.000000000000000000, 0.000000000000000000 ) ) ;
#518 = EDGE_CURVE ( 'NONE', #59, #214, #422, .T. ) ;
#519 = DATE_TIME_ROLE ( 'classification_date' ) ;
#520 = CARTESIAN_POINT ( 'NONE',  ( 0.7500000000000006661, 2.449293598294706513E-15, 2.500000000000000000 ) ) ;
#521 = CIRCLE ( 'NONE', #430, 1.500000000000001332 ) ;
#522 = DIRECTION ( 'NONE',  ( 1.000000000000000000, 0.000000000000000000, 0.000000000000000000 ) ) ;
#523 = DIRECTION ( 'NONE',  ( -0.000000000000000000, -0.000000000000000000, -1.000000000000000000 ) ) ;
#524 = EDGE_CURVE ( 'NONE', #505, #158, #383, .T. ) ;
#525 = ORIENTED_EDGE ( 'NONE', *, *, #450, .F. ) ;
ENDSEC;
END-ISO-10303-21;
