ISO-10303-21;
HEADER;
FILE_DESCRIPTION (( 'STEP AP203' ),
    '1' );
FILE_NAME ('motor_support2.STEP',
    '2026-06-01T06:33:34',
    ( '' ),
    ( '' ),
    'SwSTEP 2.0',
    'SolidWorks 2025',
    '' );
FILE_SCHEMA (( 'CONFIG_CONTROL_DESIGN' ));
ENDSEC;

DATA;
#1 = FACE_OUTER_BOUND ( 'NONE', #504, .T. ) ;
#2 = CYLINDRICAL_SURFACE ( 'NONE', #294, 1.500000000000000222 ) ;
#3 = EDGE_CURVE ( 'NONE', #53, #208, #402, .T. ) ;
#4 = CARTESIAN_POINT ( 'NONE',  ( 0.000000000000000000, -3.750000000000000000, 2.500000000000000000 ) ) ;
#5 = DATE_AND_TIME ( #129, #77 ) ;
#6 = DIRECTION ( 'NONE',  ( -0.000000000000000000, -0.000000000000000000, -1.000000000000000000 ) ) ;
#7 = APPROVAL_STATUS ( 'not_yet_approved' ) ;
#8 = ORIENTED_EDGE ( 'NONE', *, *, #268, .F. ) ;
#9 = CIRCLE ( 'NONE', #98, 1.500000000000000444 ) ;
#10 = CC_DESIGN_APPROVAL ( #297, ( #87 ) ) ;
#11 = APPROVAL ( #7, 'UNSPECIFIED' ) ;
#12 = CARTESIAN_POINT ( 'NONE',  ( -15.24999999999999822, 6.173778888663050875E-16, 0.000000000000000000 ) ) ;
#13 = VERTEX_POINT ( 'NONE', #199 ) ;
#14 = ORIENTED_EDGE ( 'NONE', *, *, #316, .T. ) ;
#15 = VERTEX_POINT ( 'NONE', #359 ) ;
#16 = VECTOR ( 'NONE', #432, 1000.000000000000000 ) ;
#17 = APPROVAL_ROLE ( '' ) ;
#18 = ORIENTED_EDGE ( 'NONE', *, *, #102, .F. ) ;
#19 = CC_DESIGN_PERSON_AND_ORGANIZATION_ASSIGNMENT ( #403, #498, ( #211 ) ) ;
#20 = ORIENTED_EDGE ( 'NONE', *, *, #421, .F. ) ;
#21 = CARTESIAN_POINT ( 'NONE',  ( 9.250000000000000000, -3.750000000000000000, -5.900000000000000355 ) ) ;
#22 = ORIENTED_EDGE ( 'NONE', *, *, #337, .T. ) ;
#23 = DIRECTION ( 'NONE',  ( 0.000000000000000000, 1.000000000000000000, -0.000000000000000000 ) ) ;
#24 = DIRECTION ( 'NONE',  ( -0.000000000000000000, -0.000000000000000000, -1.000000000000000000 ) ) ;
#25 = CIRCLE ( 'NONE', #383, 1.500000000000001332 ) ;
#26 = EDGE_CURVE ( 'NONE', #221, #456, #9, .T. ) ;
#27 = CARTESIAN_POINT ( 'NONE',  ( 9.250000000000000000, -3.750000000000000000, -5.900000000000000355 ) ) ;
#28 = LINE ( 'NONE', #343, #346 ) ;
#29 = EDGE_CURVE ( 'NONE', #290, #373, #28, .T. ) ;
#30 = DIRECTION ( 'NONE',  ( -1.000000000000000000, 0.000000000000000000, 0.000000000000000000 ) ) ;
#31 = EDGE_LOOP ( 'NONE', ( #54, #327, #59, #18, #462, #366 ) ) ;
#32 = VECTOR ( 'NONE', #299, 1000.000000000000000 ) ;
#33 = AXIS2_PLACEMENT_3D ( 'NONE', #370, #284, #449 ) ;
#34 = CARTESIAN_POINT ( 'NONE',  ( 9.250000000000000000, -3.750000000000000000, 0.000000000000000000 ) ) ;
#35 = DIRECTION ( 'NONE',  ( 1.000000000000000000, 0.000000000000000000, 0.000000000000000000 ) ) ;
#36 = ORIENTED_EDGE ( 'NONE', *, *, #397, .F. ) ;
#37 = FACE_OUTER_BOUND ( 'NONE', #422, .T. ) ;
#38 = ORIENTED_EDGE ( 'NONE', *, *, #517, .F. ) ;
#39 = LINE ( 'NONE', #180, #67 ) ;
#40 = CARTESIAN_POINT ( 'NONE',  ( 19.25000000000000000, -3.750000000000000000, -5.900000000000000355 ) ) ;
#41 = EDGE_CURVE ( 'NONE', #56, #485, #292, .T. ) ;
#42 = PLANE ( 'NONE',  #33 ) ;
#43 =( GEOMETRIC_REPRESENTATION_CONTEXT ( 3 ) GLOBAL_UNCERTAINTY_ASSIGNED_CONTEXT ( ( #167 ) ) GLOBAL_UNIT_ASSIGNED_CONTEXT ( ( #96, #90, #52 ) ) REPRESENTATION_CONTEXT ( 'NONE', 'WORKASPACE' ) );
#44 = DATE_AND_TIME ( #365, #150 ) ;
#45 = DIRECTION ( 'NONE',  ( 2.312964634635742957E-16, 1.000000000000000000, 0.000000000000000000 ) ) ;
#46 = FACE_OUTER_BOUND ( 'NONE', #31, .T. ) ;
#47 = EDGE_CURVE ( 'NONE', #314, #15, #111, .T. ) ;
#48 = PLANE ( 'NONE',  #376 ) ;
#49 = VERTEX_POINT ( 'NONE', #388 ) ;
#50 = AXIS2_PLACEMENT_3D ( 'NONE', #71, #151, #30 ) ;
#51 = LOCAL_TIME ( 1, 33, 34.00000000000000000, #259 ) ;
#52 =( NAMED_UNIT ( * ) SI_UNIT ( $, .STERADIAN. ) SOLID_ANGLE_UNIT ( ) );
#53 = VERTEX_POINT ( 'NONE', #188 ) ;
#54 = ORIENTED_EDGE ( 'NONE', *, *, #226, .F. ) ;
#55 = EDGE_CURVE ( 'NONE', #15, #13, #506, .T. ) ;
#56 = VERTEX_POINT ( 'NONE', #145 ) ;
#57 = VECTOR ( 'NONE', #277, 1000.000000000000000 ) ;
#58 = CARTESIAN_POINT ( 'NONE',  ( 0.7500000000000006661, 2.421739045313891262E-15, 2.500000000000000000 ) ) ;
#59 = ORIENTED_EDGE ( 'NONE', *, *, #452, .F. ) ;
#60 = DATE_AND_TIME ( #133, #321 ) ;
#61 = ORIENTED_EDGE ( 'NONE', *, *, #452, .T. ) ;
#62 = DIRECTION ( 'NONE',  ( -1.000000000000000000, -0.000000000000000000, -0.000000000000000000 ) ) ;
#63 = EDGE_CURVE ( 'NONE', #521, #53, #298, .T. ) ;
#64 = DIRECTION ( 'NONE',  ( -0.000000000000000000, 0.000000000000000000, 1.000000000000000000 ) ) ;
#65 = FACE_OUTER_BOUND ( 'NONE', #286, .T. ) ;
#66 = AXIS2_PLACEMENT_3D ( 'NONE', #105, #516, #429 ) ;
#67 = VECTOR ( 'NONE', #353, 1000.000000000000000 ) ;
#68 = CARTESIAN_POINT ( 'NONE',  ( 9.250000000000000000, -3.750000000000000000, -5.900000000000000355 ) ) ;
#69 = DIRECTION ( 'NONE',  ( -0.000000000000000000, -0.000000000000000000, -1.000000000000000000 ) ) ;
#70 = EDGE_CURVE ( 'NONE', #523, #373, #348, .T. ) ;
#71 = CARTESIAN_POINT ( 'NONE',  ( 14.39800000000000146, 4.093136996790198177E-15, -5.900000000000000355 ) ) ;
#72 = ORIENTED_EDGE ( 'NONE', *, *, #29, .T. ) ;
#73 = DIRECTION ( 'NONE',  ( -0.000000000000000000, -0.000000000000000000, -1.000000000000000000 ) ) ;
#74 = DIRECTION ( 'NONE',  ( -0.000000000000000000, 0.000000000000000000, 1.000000000000000000 ) ) ;
#75 = ORIENTED_EDGE ( 'NONE', *, *, #26, .F. ) ;
#76 = AXIS2_PLACEMENT_3D ( 'NONE', #478, #64, #223 ) ;
#77 = LOCAL_TIME ( 1, 33, 34.00000000000000000, #363 ) ;
#78 = DIRECTION ( 'NONE',  ( 0.000000000000000000, -0.000000000000000000, -1.000000000000000000 ) ) ;
#79 = DIRECTION ( 'NONE',  ( -1.000000000000000000, 0.000000000000000000, 0.000000000000000000 ) ) ;
#80 = EDGE_LOOP ( 'NONE', ( #330, #115, #130, #260 ) ) ;
#81 = CARTESIAN_POINT ( 'NONE',  ( 14.39800000000000146, 4.093136996790198177E-15, 2.500000000000000000 ) ) ;
#82 = ADVANCED_FACE ( 'NONE', ( #305, #190 ), #225, .F. ) ;
#83 = DIRECTION ( 'NONE',  ( -0.000000000000000000, -1.000000000000000000, -0.000000000000000000 ) ) ;
#84 = DIRECTION ( 'NONE',  ( -0.000000000000000000, -0.000000000000000000, 1.000000000000000000 ) ) ;
#85 = CARTESIAN_POINT ( 'NONE',  ( 19.25000000000000000, -3.750000000000000000, -5.900000000000000355 ) ) ;
#86 = VECTOR ( 'NONE', #69, 1000.000000000000000 ) ;
#87 = PRODUCT_DEFINITION_FORMATION_WITH_SPECIFIED_SOURCE ( 'ANY', '', #211, .NOT_KNOWN. ) ;
#88 = DIRECTION ( 'NONE',  ( -1.000000000000000000, 0.000000000000000000, 0.000000000000000000 ) ) ;
#89 = CYLINDRICAL_SURFACE ( 'NONE', #329, 1.500000000000001332 ) ;
#90 =( NAMED_UNIT ( * ) PLANE_ANGLE_UNIT ( ) SI_UNIT ( $, .RADIAN. ) );
#91 = CC_DESIGN_PERSON_AND_ORGANIZATION_ASSIGNMENT ( #372, #203, ( #118 ) ) ;
#92 = LINE ( 'NONE', #408, #215 ) ;
#93 = CARTESIAN_POINT ( 'NONE',  ( 14.39800000000000146, 4.093136996790198177E-15, 2.500000000000000000 ) ) ;
#94 = DIRECTION ( 'NONE',  ( -1.000000000000000000, 0.000000000000000000, 0.000000000000000000 ) ) ;
#95 = ORIENTED_EDGE ( 'NONE', *, *, #156, .F. ) ;
#96 =( LENGTH_UNIT ( ) NAMED_UNIT ( * ) SI_UNIT ( .MILLI., .METRE. ) );
#97 = EDGE_LOOP ( 'NONE', ( #216, #375, #271, #36 ) ) ;
#98 = AXIS2_PLACEMENT_3D ( 'NONE', #238, #382, #227 ) ;
#99 = EDGE_LOOP ( 'NONE', ( #194, #135, #126, #518 ) ) ;
#100 = PERSON_AND_ORGANIZATION ( #185, #168 ) ;
#101 = VERTEX_POINT ( 'NONE', #386 ) ;
#102 = EDGE_CURVE ( 'NONE', #324, #208, #302, .T. ) ;
#103 = LINE ( 'NONE', #261, #258 ) ;
#104 = EDGE_LOOP ( 'NONE', ( #213, #179, #465, #389, #494, #233 ) ) ;
#105 = CARTESIAN_POINT ( 'NONE',  ( 0.000000000000000000, 0.000000000000000000, -5.900000000000000355 ) ) ;
#106 = PLANE ( 'NONE',  #206 ) ;
#107 = LINE ( 'NONE', #385, #86 ) ;
#108 = FACE_OUTER_BOUND ( 'NONE', #80, .T. ) ;
#109 = ADVANCED_FACE ( 'NONE', ( #468, #65, #264, #513 ), #520, .T. ) ;
#110 = LINE ( 'NONE', #269, #313 ) ;
#111 = LINE ( 'NONE', #144, #265 ) ;
#112 = ORIENTED_EDGE ( 'NONE', *, *, #489, .T. ) ;
#113 = CARTESIAN_POINT ( 'NONE',  ( 19.25000000000000000, -3.750000000000000000, 2.500000000000000000 ) ) ;
#114 = PLANE ( 'NONE',  #312 ) ;
#115 = ORIENTED_EDGE ( 'NONE', *, *, #226, .T. ) ;
#116 = SECURITY_CLASSIFICATION ( '', '', #255 ) ;
#117 = CYLINDRICAL_SURFACE ( 'NONE', #300, 1.500000000000001332 ) ;
#118 = PRODUCT_DEFINITION ( 'UNKNOWN', '', #87, #131 ) ;
#119 = ORIENTED_EDGE ( 'NONE', *, *, #437, .T. ) ;
#120 = CARTESIAN_POINT ( 'NONE',  ( 0.7500000000000006661, 2.421739045313891262E-15, 2.500000000000000000 ) ) ;
#121 = APPROVAL_DATE_TIME ( #44, #11 ) ;
#122 = EDGE_CURVE ( 'NONE', #101, #221, #107, .T. ) ;
#124 = AXIS2_PLACEMENT_3D ( 'NONE', #340, #161, #78 ) ;
#123 = APPROVAL_ROLE ( '' ) ;
#125 = CALENDAR_DATE ( 2026, 1, 6 ) ;
#126 = ORIENTED_EDGE ( 'NONE', *, *, #467, .F. ) ;
#127 = CARTESIAN_POINT ( 'NONE',  ( 0.7500000000000006661, 2.421739045313891262E-15, 2.500000000000000000 ) ) ;
#128 = ORIENTED_EDGE ( 'NONE', *, *, #268, .T. ) ;
#129 = CALENDAR_DATE ( 2026, 1, 6 ) ;
#130 = ORIENTED_EDGE ( 'NONE', *, *, #156, .T. ) ;
#131 = DESIGN_CONTEXT ( 'detailed design', #191, 'design' ) ;
#132 = ADVANCED_FACE ( 'NONE', ( #471, #393, #108 ), #114, .F. ) ;
#133 = CALENDAR_DATE ( 2026, 1, 6 ) ;
#134 = VERTEX_POINT ( 'NONE', #193 ) ;
#135 = ORIENTED_EDGE ( 'NONE', *, *, #3, .F. ) ;
#136 = DATE_AND_TIME ( #220, #51 ) ;
#137 = EDGE_CURVE ( 'NONE', #439, #134, #351, .T. ) ;
#138 = EDGE_LOOP ( 'NONE', ( #38, #142 ) ) ;
#139 = CARTESIAN_POINT ( 'NONE',  ( -19.25000000000000000, -3.750000000000000000, 2.500000000000000000 ) ) ;
#140 = VECTOR ( 'NONE', #510, 1000.000000000000000 ) ;
#141 = APPLICATION_CONTEXT ( 'configuration controlled 3d designs of mechanical parts and assemblies' ) ;
#142 = ORIENTED_EDGE ( 'NONE', *, *, #430, .F. ) ;
#143 = CARTESIAN_POINT ( 'NONE',  ( -0.7499999999999995559, 2.421739045313891262E-15, 0.000000000000000000 ) ) ;
#144 = CARTESIAN_POINT ( 'NONE',  ( 15.89800000000000324, 4.276834016662301688E-15, 2.500000000000000000 ) ) ;
#145 = CARTESIAN_POINT ( 'NONE',  ( -18.25000000000000355, 4.336808689942017736E-16, 0.000000000000000000 ) ) ;
#146 = EDGE_CURVE ( 'NONE', #314, #49, #405, .T. ) ;
#147 = VECTOR ( 'NONE', #23, 1000.000000000000000 ) ;
#148 = DIRECTION ( 'NONE',  ( 1.000000000000000000, -0.000000000000000000, -0.000000000000000000 ) ) ;
#149 = CIRCLE ( 'NONE', #175, 1.500000000000001332 ) ;
#150 = LOCAL_TIME ( 1, 33, 34.00000000000000000, #210 ) ;
#151 = DIRECTION ( 'NONE',  ( 0.000000000000000000, 0.000000000000000000, -1.000000000000000000 ) ) ;
#152 = ORIENTED_EDGE ( 'NONE', *, *, #406, .F. ) ;
#153 = DIRECTION ( 'NONE',  ( -1.000000000000000000, 0.000000000000000000, 0.000000000000000000 ) ) ;
#154 = CARTESIAN_POINT ( 'NONE',  ( -19.25000000000000000, -3.750000000000000000, 2.500000000000000000 ) ) ;
#155 = ORIENTED_EDGE ( 'NONE', *, *, #415, .T. ) ;
#156 = EDGE_CURVE ( 'NONE', #134, #373, #184, .T. ) ;
#157 = DIRECTION ( 'NONE',  ( -0.000000000000000000, -0.000000000000000000, -1.000000000000000000 ) ) ;
#158 = FACE_OUTER_BOUND ( 'NONE', #99, .T. ) ;
#159 = CIRCLE ( 'NONE', #411, 1.500000000000000444 ) ;
#160 = CC_DESIGN_APPROVAL ( #11, ( #118 ) ) ;
#161 = DIRECTION ( 'NONE',  ( 0.000000000000000000, -1.000000000000000000, 0.000000000000000000 ) ) ;
#162 = APPLICATION_PROTOCOL_DEFINITION ( 'international standard', 'config_control_design', 1994, #191 ) ;
#163 = FACE_OUTER_BOUND ( 'NONE', #414, .T. ) ;
#164 = CC_DESIGN_DATE_AND_TIME_ASSIGNMENT ( #5, #165, ( #118 ) ) ;
#165 = DATE_TIME_ROLE ( 'creation_date' ) ;
#166 = CARTESIAN_POINT ( 'NONE',  ( 14.39800000000000146, 4.093136996790198177E-15, 2.500000000000000000 ) ) ;
#167 = UNCERTAINTY_MEASURE_WITH_UNIT (LENGTH_MEASURE( 1.000000000000000082E-05 ), #96, 'distance_accuracy_value', 'NONE');
#168 = ORGANIZATION ( 'UNSPECIFIED', 'UNSPECIFIED', '' ) ;
#169 = ORIENTED_EDGE ( 'NONE', *, *, #137, .F. ) ;
#170 = DIRECTION ( 'NONE',  ( 1.000000000000000000, 0.000000000000000000, 0.000000000000000000 ) ) ;
#171 = CARTESIAN_POINT ( 'NONE',  ( 0.000000000000000000, 0.000000000000000000, 0.000000000000000000 ) ) ;
#172 = CC_DESIGN_PERSON_AND_ORGANIZATION_ASSIGNMENT ( #100, #336, ( #116 ) ) ;
#173 = EDGE_LOOP ( 'NONE', ( #61, #479, #212, #497 ) ) ;
#174 = VERTEX_POINT ( 'NONE', #427 ) ;
#175 = AXIS2_PLACEMENT_3D ( 'NONE', #401, #283, #448 ) ;
#176 = VERTEX_POINT ( 'NONE', #27 ) ;
#177 = ADVANCED_FACE ( 'NONE', ( #158 ), #48, .F. ) ;
#178 = SHAPE_DEFINITION_REPRESENTATION ( #361, #400 ) ;
#179 = ORIENTED_EDGE ( 'NONE', *, *, #63, .F. ) ;
#180 = CARTESIAN_POINT ( 'NONE',  ( 12.89799999999999969, 4.093136996790198177E-15, 2.500000000000000000 ) ) ;
#181 = ORIENTED_EDGE ( 'NONE', *, *, #55, .T. ) ;
#182 = LINE ( 'NONE', #222, #461 ) ;
#183 = CIRCLE ( 'NONE', #339, 1.500000000000001332 ) ;
#184 = LINE ( 'NONE', #341, #140 ) ;
#185 = PERSON ( 'UNSPECIFIED', 'UNSPECIFIED', 'UNSPECIFIED', ('UNSPECIFIED'), ('UNSPECIFIED'), ('UNSPECIFIED') ) ;
#186 = ADVANCED_FACE ( 'NONE', ( #1 ), #89, .F. ) ;
#187 = CARTESIAN_POINT ( 'NONE',  ( -0.000000000000000000, -3.750000000000000000, 0.000000000000000000 ) ) ;
#188 = CARTESIAN_POINT ( 'NONE',  ( 19.25000000000000000, 3.750000000000000000, -5.900000000000000355 ) ) ;
#189 = CIRCLE ( 'NONE', #428, 1.500000000000001332 ) ;
#190 = FACE_BOUND ( 'NONE', #420, .T. ) ;
#191 = APPLICATION_CONTEXT ( 'configuration controlled 3d designs of mechanical parts and assemblies' ) ;
#192 = CARTESIAN_POINT ( 'NONE',  ( 0.7500000000000006661, 2.421739045313891262E-15, 2.500000000000000000 ) ) ;
#193 = CARTESIAN_POINT ( 'NONE',  ( -19.25000000000000000, -3.750000000000000000, 0.000000000000000000 ) ) ;
#194 = ORIENTED_EDGE ( 'NONE', *, *, #102, .T. ) ;
#195 = LINE ( 'NONE', #476, #275 ) ;
#196 = ORIENTED_EDGE ( 'NONE', *, *, #47, .T. ) ;
#197 = CARTESIAN_POINT ( 'NONE',  ( 9.250000000000001776, -3.750000000000000000, 0.000000000000000000 ) ) ;
#198 = CARTESIAN_POINT ( 'NONE',  ( 19.25000000000000000, 3.750000000000000000, 2.500000000000000000 ) ) ;
#199 = CARTESIAN_POINT ( 'NONE',  ( 12.89799999999999969, 4.093136996790198177E-15, -5.900000000000000355 ) ) ;
#200 = VECTOR ( 'NONE', #245, 1000.000000000000000 ) ;
#201 = CIRCLE ( 'NONE', #207, 1.500000000000000444 ) ;
#202 = DIRECTION ( 'NONE',  ( -0.000000000000000000, 0.000000000000000000, 1.000000000000000000 ) ) ;
#203 = PERSON_AND_ORGANIZATION_ROLE ( 'creator' ) ;
#204 = EDGE_CURVE ( 'NONE', #456, #221, #338, .T. ) ;
#205 = CARTESIAN_POINT ( 'NONE',  ( -19.25000000000000000, 0.000000000000000000, 2.500000000000000000 ) ) ;
#206 = AXIS2_PLACEMENT_3D ( 'NONE', #68, #344, #347 ) ;
#207 = AXIS2_PLACEMENT_3D ( 'NONE', #120, #443, #505 ) ;
#208 = VERTEX_POINT ( 'NONE', #85 ) ;
#209 = EDGE_CURVE ( 'NONE', #101, #334, #159, .T. ) ;
#210 = COORDINATED_UNIVERSAL_TIME_OFFSET ( 6, 0, .BEHIND. ) ;
#211 = PRODUCT ( 'motor_support2', 'motor_support2', '', ( #445 ) ) ;
#212 = ORIENTED_EDGE ( 'NONE', *, *, #63, .T. ) ;
#213 = ORIENTED_EDGE ( 'NONE', *, *, #467, .T. ) ;
#214 = PERSON_AND_ORGANIZATION ( #185, #168 ) ;
#215 = VECTOR ( 'NONE', #524, 1000.000000000000000 ) ;
#216 = ORIENTED_EDGE ( 'NONE', *, *, #517, .T. ) ;
#217 = CC_DESIGN_PERSON_AND_ORGANIZATION_ASSIGNMENT ( #214, #460, ( #87 ) ) ;
#218 = DIRECTION ( 'NONE',  ( 1.000000000000000000, 0.000000000000000000, 0.000000000000000000 ) ) ;
#219 = ORIENTED_EDGE ( 'NONE', *, *, #146, .T. ) ;
#220 = CALENDAR_DATE ( 2026, 1, 6 ) ;
#221 = VERTEX_POINT ( 'NONE', #459 ) ;
#222 = CARTESIAN_POINT ( 'NONE',  ( 19.25000000000000000, 3.750000000000000000, 2.500000000000000000 ) ) ;
#223 = DIRECTION ( 'NONE',  ( 1.000000000000000000, 0.000000000000000000, 0.000000000000000000 ) ) ;
#224 = VECTOR ( 'NONE', #45, 1000.000000000000000 ) ;
#225 = PLANE ( 'NONE',  #66 ) ;
#226 = EDGE_CURVE ( 'NONE', #425, #134, #328, .T. ) ;
#227 = DIRECTION ( 'NONE',  ( 1.000000000000000000, 0.000000000000000000, 0.000000000000000000 ) ) ;
#228 = DIRECTION ( 'NONE',  ( 1.000000000000000000, 0.000000000000000000, 0.000000000000000000 ) ) ;
#229 = ORIENTED_EDGE ( 'NONE', *, *, #26, .T. ) ;
#230 = DIRECTION ( 'NONE',  ( -1.000000000000000000, 0.000000000000000000, 0.000000000000000000 ) ) ;
#231 = DIRECTION ( 'NONE',  ( -0.000000000000000000, 0.000000000000000000, 1.000000000000000000 ) ) ;
#232 = AXIS2_PLACEMENT_3D ( 'NONE', #447, #246, #409 ) ;
#233 = ORIENTED_EDGE ( 'NONE', *, *, #337, .F. ) ;
#234 = CARTESIAN_POINT ( 'NONE',  ( -16.75000000000000000, 4.336808689942017736E-16, 2.500000000000000000 ) ) ;
#235 = CYLINDRICAL_SURFACE ( 'NONE', #469, 1.500000000000001332 ) ;
#236 = EDGE_LOOP ( 'NONE', ( #377, #257 ) ) ;
#237 = DIRECTION ( 'NONE',  ( -1.000000000000000000, 0.000000000000000000, 0.000000000000000000 ) ) ;
#238 = CARTESIAN_POINT ( 'NONE',  ( 0.7500000000000006661, 2.421739045313891262E-15, 0.000000000000000000 ) ) ;
#239 = PERSON_AND_ORGANIZATION ( #185, #168 ) ;
#240 = APPROVAL_PERSON_ORGANIZATION ( #493, #297, #123 ) ;
#241 = ADVANCED_FACE ( 'NONE', ( #342 ), #106, .F. ) ;
#242 = APPLICATION_PROTOCOL_DEFINITION ( 'international standard', 'config_control_design', 1994, #141 ) ;
#243 = DIRECTION ( 'NONE',  ( -1.000000000000000000, 0.000000000000000000, 0.000000000000000000 ) ) ;
#244 = DIRECTION ( 'NONE',  ( -0.000000000000000000, -0.000000000000000000, -1.000000000000000000 ) ) ;
#245 = DIRECTION ( 'NONE',  ( -1.000000000000000000, 0.000000000000000000, 0.000000000000000000 ) ) ;
#246 = DIRECTION ( 'NONE',  ( -0.000000000000000000, 0.000000000000000000, 1.000000000000000000 ) ) ;
#247 = ORIENTED_EDGE ( 'NONE', *, *, #489, .F. ) ;
#248 = EDGE_CURVE ( 'NONE', #176, #521, #404, .T. ) ;
#249 = VECTOR ( 'NONE', #426, 1000.000000000000000 ) ;
#250 = VECTOR ( 'NONE', #84, 1000.000000000000000 ) ;
#251 = ORIENTED_EDGE ( 'NONE', *, *, #209, .T. ) ;
#252 = PERSON_AND_ORGANIZATION ( #185, #168 ) ;
#253 = ORIENTED_EDGE ( 'NONE', *, *, #364, .T. ) ;
#254 = EDGE_LOOP ( 'NONE', ( #309, #14 ) ) ;
#255 = SECURITY_CLASSIFICATION_LEVEL ( 'unclassified' ) ;
#256 = APPROVAL ( #507, 'UNSPECIFIED' ) ;
#257 = ORIENTED_EDGE ( 'NONE', *, *, #209, .F. ) ;
#258 = VECTOR ( 'NONE', #62, 1000.000000000000000 ) ;
#259 = COORDINATED_UNIVERSAL_TIME_OFFSET ( 6, 0, .BEHIND. ) ;
#260 = ORIENTED_EDGE ( 'NONE', *, *, #70, .F. ) ;
#261 = CARTESIAN_POINT ( 'NONE',  ( 9.250000000000000000, -3.750000000000000000, -5.900000000000000355 ) ) ;
#262 = VERTEX_POINT ( 'NONE', #198 ) ;
#263 = CC_DESIGN_PERSON_AND_ORGANIZATION_ASSIGNMENT ( #252, #457, ( #87 ) ) ;
#264 = FACE_BOUND ( 'NONE', #398, .T. ) ;
#265 = VECTOR ( 'NONE', #24, 1000.000000000000000 ) ;
#266 = DIRECTION ( 'NONE',  ( -1.000000000000000000, 0.000000000000000000, 0.000000000000000000 ) ) ;
#267 = CARTESIAN_POINT ( 'NONE',  ( -16.75000000000000000, 4.336808689942017736E-16, 0.000000000000000000 ) ) ;
#268 = EDGE_CURVE ( 'NONE', #49, #314, #189, .T. ) ;
#269 = CARTESIAN_POINT ( 'NONE',  ( -15.25000000000000000, 6.173778888663049889E-16, 2.500000000000000000 ) ) ;
#270 = CARTESIAN_POINT ( 'NONE',  ( 19.25000000000000000, 3.750000000000000000, -5.900000000000000355 ) ) ;
#271 = ORIENTED_EDGE ( 'NONE', *, *, #41, .F. ) ;
#272 = DIRECTION ( 'NONE',  ( -0.000000000000000000, -0.000000000000000000, -1.000000000000000000 ) ) ;
#273 = VECTOR ( 'NONE', #266, 1000.000000000000000 ) ;
#274 = CARTESIAN_POINT ( 'NONE',  ( 19.25000000000000000, -3.750000000000000000, 2.500000000000000000 ) ) ;
#275 = VECTOR ( 'NONE', #280, 1000.000000000000000 ) ;
#276 = ORIENTED_EDGE ( 'NONE', *, *, #374, .T. ) ;
#277 = DIRECTION ( 'NONE',  ( 2.312964634635742957E-16, 1.000000000000000000, 0.000000000000000000 ) ) ;
#278 = PLANE ( 'NONE',  #282 ) ;
#279 = ORIENTED_EDGE ( 'NONE', *, *, #285, .T. ) ;
#280 = DIRECTION ( 'NONE',  ( -0.000000000000000000, -0.000000000000000000, 1.000000000000000000 ) ) ;
#281 = EDGE_CURVE ( 'NONE', #324, #439, #360, .T. ) ;
#282 = AXIS2_PLACEMENT_3D ( 'NONE', #205, #88, #488 ) ;
#283 = DIRECTION ( 'NONE',  ( -0.000000000000000000, 0.000000000000000000, 1.000000000000000000 ) ) ;
#284 = DIRECTION ( 'NONE',  ( 0.000000000000000000, -1.000000000000000000, 0.000000000000000000 ) ) ;
#285 = EDGE_CURVE ( 'NONE', #13, #15, #25, .T. ) ;
#286 = EDGE_LOOP ( 'NONE', ( #253, #22, #247, #325 ) ) ;
#287 = CARTESIAN_POINT ( 'NONE',  ( -19.25000000000000000, 0.000000000000000000, 2.500000000000000000 ) ) ;
#288 = COORDINATED_UNIVERSAL_TIME_OFFSET ( 6, 0, .BEHIND. ) ;
#289 = ADVANCED_FACE ( 'NONE', ( #491 ), #235, .F. ) ;
#290 = VERTEX_POINT ( 'NONE', #358 ) ;
#291 = APPROVAL_DATE_TIME ( #136, #256 ) ;
#292 = CIRCLE ( 'NONE', #368, 1.500000000000001332 ) ;
#293 = EDGE_LOOP ( 'NONE', ( #276, #152, #306, #155 ) ) ;
#294 = AXIS2_PLACEMENT_3D ( 'NONE', #127, #244, #94 ) ;
#295 = FACE_OUTER_BOUND ( 'NONE', #458, .T. ) ;
#296 = ORIENTED_EDGE ( 'NONE', *, *, #204, .F. ) ;
#297 = APPROVAL ( #490, 'UNSPECIFIED' ) ;
#298 = LINE ( 'NONE', #270, #446 ) ;
#299 = DIRECTION ( 'NONE',  ( -0.000000000000000000, -0.000000000000000000, -1.000000000000000000 ) ) ;
#300 = AXIS2_PLACEMENT_3D ( 'NONE', #234, #272, #153 ) ;
#301 = MANIFOLD_SOLID_BREP ( 'Boss-Extrude2', #481 ) ;
#302 = LINE ( 'NONE', #274, #32 ) ;
#303 = ADVANCED_FACE ( 'NONE', ( #163 ), #278, .T. ) ;
#304 = DIRECTION ( 'NONE',  ( -0.000000000000000000, -0.000000000000000000, -1.000000000000000000 ) ) ;
#305 = FACE_OUTER_BOUND ( 'NONE', #173, .T. ) ;
#306 = ORIENTED_EDGE ( 'NONE', *, *, #248, .F. ) ;
#307 = DIRECTION ( 'NONE',  ( -0.000000000000000000, -0.000000000000000000, -1.000000000000000000 ) ) ;
#308 = DIRECTION ( 'NONE',  ( -0.000000000000000000, -0.000000000000000000, -1.000000000000000000 ) ) ;
#309 = ORIENTED_EDGE ( 'NONE', *, *, #41, .T. ) ;
#310 = LINE ( 'NONE', #522, #16 ) ;
#311 = CARTESIAN_POINT ( 'NONE',  ( 14.39800000000000146, 4.093136996790198177E-15, -5.900000000000000355 ) ) ;
#312 = AXIS2_PLACEMENT_3D ( 'NONE', #431, #74, #35 ) ;
#313 = VECTOR ( 'NONE', #73, 1000.000000000000000 ) ;
#314 = VERTEX_POINT ( 'NONE', #320 ) ;
#315 = CYLINDRICAL_SURFACE ( 'NONE', #392, 1.500000000000001332 ) ;
#316 = EDGE_CURVE ( 'NONE', #485, #56, #149, .T. ) ;
#317 = DIRECTION ( 'NONE',  ( -0.000000000000000000, -0.000000000000000000, -1.000000000000000000 ) ) ;
#318 = DIRECTION ( 'NONE',  ( -1.000000000000000000, 0.000000000000000000, 0.000000000000000000 ) ) ;
#319 = CARTESIAN_POINT ( 'NONE',  ( 9.250000000000001776, 3.750000000000000000, -5.900000000000000355 ) ) ;
#320 = CARTESIAN_POINT ( 'NONE',  ( 15.89800000000000324, 4.276834016662301688E-15, 2.500000000000000000 ) ) ;
#321 = LOCAL_TIME ( 1, 33, 34.00000000000000000, #464 ) ;
#322 = EDGE_CURVE ( 'NONE', #334, #456, #92, .T. ) ;
#323 = DIRECTION ( 'NONE',  ( 0.000000000000000000, 1.000000000000000000, -0.000000000000000000 ) ) ;
#324 = VERTEX_POINT ( 'NONE', #113 ) ;
#325 = ORIENTED_EDGE ( 'NONE', *, *, #281, .F. ) ;
#326 = DIRECTION ( 'NONE',  ( 0.000000000000000000, 0.000000000000000000, 1.000000000000000000 ) ) ;
#327 = ORIENTED_EDGE ( 'NONE', *, *, #415, .F. ) ;
#328 = LINE ( 'NONE', #187, #249 ) ;
#329 = AXIS2_PLACEMENT_3D ( 'NONE', #93, #317, #243 ) ;
#330 = ORIENTED_EDGE ( 'NONE', *, *, #374, .F. ) ;
#331 = ADVANCED_FACE ( 'NONE', ( #295 ), #117, .F. ) ;
#332 = ORIENTED_EDGE ( 'NONE', *, *, #55, .F. ) ;
#333 = DATE_TIME_ROLE ( 'classification_date' ) ;
#334 = VERTEX_POINT ( 'NONE', #357 ) ;
#335 = DIRECTION ( 'NONE',  ( 1.000000000000000000, 0.000000000000000000, 0.000000000000000000 ) ) ;
#336 = PERSON_AND_ORGANIZATION_ROLE ( 'classification_officer' ) ;
#337 = EDGE_CURVE ( 'NONE', #262, #290, #310, .T. ) ;
#338 = CIRCLE ( 'NONE', #453, 1.500000000000000444 ) ;
#339 = AXIS2_PLACEMENT_3D ( 'NONE', #509, #486, #335 ) ;
#340 = CARTESIAN_POINT ( 'NONE',  ( 0.000000000000000000, 3.750000000000000000, 2.500000000000000000 ) ) ;
#341 = CARTESIAN_POINT ( 'NONE',  ( -19.25000000000000000, 0.000000000000000000, 0.000000000000000000 ) ) ;
#342 = FACE_OUTER_BOUND ( 'NONE', #293, .T. ) ;
#343 = CARTESIAN_POINT ( 'NONE',  ( -19.25000000000000000, 3.750000000000000000, 2.500000000000000000 ) ) ;
#344 = DIRECTION ( 'NONE',  ( 1.000000000000000000, -2.312964634635742957E-16, 0.000000000000000000 ) ) ;
#345 = DIRECTION ( 'NONE',  ( -0.000000000000000000, 0.000000000000000000, 1.000000000000000000 ) ) ;
#346 = VECTOR ( 'NONE', #512, 1000.000000000000000 ) ;
#347 = DIRECTION ( 'NONE',  ( 2.312964634635742957E-16, 1.000000000000000000, 0.000000000000000000 ) ) ;
#348 = LINE ( 'NONE', #466, #273 ) ;
#349 = ORIENTED_EDGE ( 'NONE', *, *, #285, .F. ) ;
#350 = PLANE ( 'NONE',  #124 ) ;
#351 = LINE ( 'NONE', #154, #436 ) ;
#352 = ORIENTED_EDGE ( 'NONE', *, *, #475, .F. ) ;
#353 = DIRECTION ( 'NONE',  ( -0.000000000000000000, -0.000000000000000000, -1.000000000000000000 ) ) ;
#354 = DIRECTION ( 'NONE',  ( 0.000000000000000000, 0.000000000000000000, -1.000000000000000000 ) ) ;
#355 = EDGE_LOOP ( 'NONE', ( #119, #371, #296, #499 ) ) ;
#356 = ADVANCED_FACE ( 'NONE', ( #381 ), #519, .F. ) ;
#357 = CARTESIAN_POINT ( 'NONE',  ( -0.7499999999999995559, 2.421739045313891262E-15, 2.500000000000000000 ) ) ;
#358 = CARTESIAN_POINT ( 'NONE',  ( -19.25000000000000000, 3.750000000000000000, 2.500000000000000000 ) ) ;
#359 = CARTESIAN_POINT ( 'NONE',  ( 15.89800000000000324, 4.276834016662301688E-15, -5.900000000000000355 ) ) ;
#360 = LINE ( 'NONE', #4, #200 ) ;
#361 = PRODUCT_DEFINITION_SHAPE ( 'NONE', 'NONE',  #118 ) ;
#362 = DIRECTION ( 'NONE',  ( 1.000000000000000000, 0.000000000000000000, 0.000000000000000000 ) ) ;
#363 = COORDINATED_UNIVERSAL_TIME_OFFSET ( 6, 0, .BEHIND. ) ;
#364 = EDGE_CURVE ( 'NONE', #324, #262, #435, .T. ) ;
#365 = CALENDAR_DATE ( 2026, 1, 6 ) ;
#366 = ORIENTED_EDGE ( 'NONE', *, *, #137, .T. ) ;
#367 = CARTESIAN_POINT ( 'NONE',  ( 19.25000000000000000, 0.000000000000000000, 2.500000000000000000 ) ) ;
#368 = AXIS2_PLACEMENT_3D ( 'NONE', #267, #231, #228 ) ;
#369 = CC_DESIGN_SECURITY_CLASSIFICATION ( #116, ( #87 ) ) ;
#370 = CARTESIAN_POINT ( 'NONE',  ( 0.000000000000000000, -3.750000000000000000, 2.500000000000000000 ) ) ;
#371 = ORIENTED_EDGE ( 'NONE', *, *, #122, .T. ) ;
#372 = PERSON_AND_ORGANIZATION ( #185, #168 ) ;
#373 = VERTEX_POINT ( 'NONE', #390 ) ;
#374 = EDGE_CURVE ( 'NONE', #425, #523, #480, .T. ) ;
#375 = ORIENTED_EDGE ( 'NONE', *, *, #475, .T. ) ;
#376 = AXIS2_PLACEMENT_3D ( 'NONE', #367, #79, #484 ) ;
#377 = ORIENTED_EDGE ( 'NONE', *, *, #437, .F. ) ;
#378 = ORIENTED_EDGE ( 'NONE', *, *, #322, .T. ) ;
#379 = LINE ( 'NONE', #395, #492 ) ;
#380 = ADVANCED_FACE ( 'NONE', ( #440 ), #350, .F. ) ;
#381 = FACE_OUTER_BOUND ( 'NONE', #355, .T. ) ;
#382 = DIRECTION ( 'NONE',  ( -0.000000000000000000, 0.000000000000000000, 1.000000000000000000 ) ) ;
#383 = AXIS2_PLACEMENT_3D ( 'NONE', #311, #354, #441 ) ;
#384 = AXIS2_PLACEMENT_3D ( 'NONE', #171, #326, #170 ) ;
#385 = CARTESIAN_POINT ( 'NONE',  ( 2.250000000000001332, 2.605436065185994379E-15, 2.500000000000000000 ) ) ;
#386 = CARTESIAN_POINT ( 'NONE',  ( 2.250000000000001332, 2.605436065185994379E-15, 2.500000000000000000 ) ) ;
#387 = ADVANCED_FACE ( 'NONE', ( #37 ), #315, .F. ) ;
#388 = CARTESIAN_POINT ( 'NONE',  ( 12.89799999999999969, 4.093136996790198177E-15, 2.500000000000000000 ) ) ;
#389 = ORIENTED_EDGE ( 'NONE', *, *, #70, .T. ) ;
#390 = CARTESIAN_POINT ( 'NONE',  ( -19.25000000000000000, 3.750000000000000000, 0.000000000000000000 ) ) ;
#391 = AXIS2_PLACEMENT_3D ( 'NONE', #473, #345, #433 ) ;
#392 = AXIS2_PLACEMENT_3D ( 'NONE', #81, #307, #237 ) ;
#393 = FACE_BOUND ( 'NONE', #254, .T. ) ;
#394 = ORIENTED_EDGE ( 'NONE', *, *, #397, .T. ) ;
#395 = CARTESIAN_POINT ( 'NONE',  ( -18.25000000000000355, 4.336808689942017736E-16, 2.500000000000000000 ) ) ;
#396 = CARTESIAN_POINT ( 'NONE',  ( 0.7500000000000006661, 2.421739045313891262E-15, 0.000000000000000000 ) ) ;
#397 = EDGE_CURVE ( 'NONE', #474, #56, #379, .T. ) ;
#398 = EDGE_LOOP ( 'NONE', ( #8, #508 ) ) ;
#399 = DIRECTION ( 'NONE',  ( -0.000000000000000000, -0.000000000000000000, -1.000000000000000000 ) ) ;
#400 = ADVANCED_BREP_SHAPE_REPRESENTATION ( 'motor_support2', ( #301, #384 ), #43 ) ;
#401 = CARTESIAN_POINT ( 'NONE',  ( -16.75000000000000000, 4.336808689942017736E-16, 0.000000000000000000 ) ) ;
#402 = LINE ( 'NONE', #40, #525 ) ;
#403 = PERSON_AND_ORGANIZATION ( #185, #168 ) ;
#404 = LINE ( 'NONE', #477, #224 ) ;
#405 = CIRCLE ( 'NONE', #76, 1.500000000000001332 ) ;
#406 = EDGE_CURVE ( 'NONE', #521, #523, #195, .T. ) ;
#407 = CC_DESIGN_DATE_AND_TIME_ASSIGNMENT ( #60, #333, ( #116 ) ) ;
#408 = CARTESIAN_POINT ( 'NONE',  ( -0.7499999999999995559, 2.421739045313891262E-15, 2.500000000000000000 ) ) ;
#409 = DIRECTION ( 'NONE',  ( 1.000000000000000000, 0.000000000000000000, 0.000000000000000000 ) ) ;
#410 = ORIENTED_EDGE ( 'NONE', *, *, #316, .F. ) ;
#411 = AXIS2_PLACEMENT_3D ( 'NONE', #58, #502, #218 ) ;
#412 = CC_DESIGN_APPROVAL ( #256, ( #116 ) ) ;
#413 = FACE_OUTER_BOUND ( 'NONE', #418, .T. ) ;
#414 = EDGE_LOOP ( 'NONE', ( #95, #169, #112, #72 ) ) ;
#415 = EDGE_CURVE ( 'NONE', #176, #425, #463, .T. ) ;
#416 = PERSON_AND_ORGANIZATION ( #185, #168 ) ;
#417 = EDGE_LOOP ( 'NONE', ( #501, #229 ) ) ;
#418 = EDGE_LOOP ( 'NONE', ( #434, #251, #378, #75 ) ) ;
#419 = APPROVAL_DATE_TIME ( #455, #297 ) ;
#420 = EDGE_LOOP ( 'NONE', ( #349, #332 ) ) ;
#421 = EDGE_CURVE ( 'NONE', #49, #13, #39, .T. ) ;
#422 = EDGE_LOOP ( 'NONE', ( #128, #196, #181, #20 ) ) ;
#423 = PRODUCT_RELATED_PRODUCT_CATEGORY ( 'detail', '', ( #211 ) ) ;
#424 = CARTESIAN_POINT ( 'NONE',  ( 19.25000000000000000, 0.000000000000000000, 2.500000000000000000 ) ) ;
#425 = VERTEX_POINT ( 'NONE', #197 ) ;
#426 = DIRECTION ( 'NONE',  ( -1.000000000000000000, 0.000000000000000000, 0.000000000000000000 ) ) ;
#427 = CARTESIAN_POINT ( 'NONE',  ( -15.24999999999999822, 6.173778888663050875E-16, 2.500000000000000000 ) ) ;
#428 = AXIS2_PLACEMENT_3D ( 'NONE', #166, #202, #438 ) ;
#429 = DIRECTION ( 'NONE',  ( 1.000000000000000000, 0.000000000000000000, -0.000000000000000000 ) ) ;
#430 = EDGE_CURVE ( 'NONE', #174, #474, #183, .T. ) ;
#431 = CARTESIAN_POINT ( 'NONE',  ( 0.000000000000000000, 0.000000000000000000, 0.000000000000000000 ) ) ;
#432 = DIRECTION ( 'NONE',  ( -1.000000000000000000, 0.000000000000000000, 0.000000000000000000 ) ) ;
#433 = DIRECTION ( 'NONE',  ( 1.000000000000000000, 0.000000000000000000, 0.000000000000000000 ) ) ;
#434 = ORIENTED_EDGE ( 'NONE', *, *, #122, .F. ) ;
#435 = LINE ( 'NONE', #424, #147 ) ;
#436 = VECTOR ( 'NONE', #308, 1000.000000000000000 ) ;
#437 = EDGE_CURVE ( 'NONE', #334, #101, #201, .T. ) ;
#438 = DIRECTION ( 'NONE',  ( 1.000000000000000000, 0.000000000000000000, 0.000000000000000000 ) ) ;
#439 = VERTEX_POINT ( 'NONE', #139 ) ;
#440 = FACE_OUTER_BOUND ( 'NONE', #104, .T. ) ;
#441 = DIRECTION ( 'NONE',  ( -1.000000000000000000, 0.000000000000000000, 0.000000000000000000 ) ) ;
#442 = ORIENTED_EDGE ( 'NONE', *, *, #421, .T. ) ;
#443 = DIRECTION ( 'NONE',  ( -0.000000000000000000, 0.000000000000000000, 1.000000000000000000 ) ) ;
#444 = DIRECTION ( 'NONE',  ( -0.000000000000000000, 0.000000000000000000, 1.000000000000000000 ) ) ;
#445 = MECHANICAL_CONTEXT ( 'NONE', #141, 'mechanical' ) ;
#446 = VECTOR ( 'NONE', #148, 1000.000000000000000 ) ;
#447 = CARTESIAN_POINT ( 'NONE',  ( -16.75000000000000000, 4.336808689942017736E-16, 2.500000000000000000 ) ) ;
#448 = DIRECTION ( 'NONE',  ( 1.000000000000000000, 0.000000000000000000, 0.000000000000000000 ) ) ;
#449 = DIRECTION ( 'NONE',  ( 0.000000000000000000, -0.000000000000000000, -1.000000000000000000 ) ) ;
#450 = APPROVAL_ROLE ( '' ) ;
#451 = ORIENTED_EDGE ( 'NONE', *, *, #430, .T. ) ;
#452 = EDGE_CURVE ( 'NONE', #208, #176, #103, .T. ) ;
#453 = AXIS2_PLACEMENT_3D ( 'NONE', #396, #444, #362 ) ;
#454 = LOCAL_TIME ( 1, 33, 34.00000000000000000, #288 ) ;
#455 = DATE_AND_TIME ( #125, #454 ) ;
#456 = VERTEX_POINT ( 'NONE', #143 ) ;
#457 = PERSON_AND_ORGANIZATION_ROLE ( 'creator' ) ;
#458 = EDGE_LOOP ( 'NONE', ( #352, #451, #394, #410 ) ) ;
#459 = CARTESIAN_POINT ( 'NONE',  ( 2.250000000000001332, 2.605436065185994379E-15, 0.000000000000000000 ) ) ;
#461 = VECTOR ( 'NONE', #304, 1000.000000000000000 ) ;
#460 = PERSON_AND_ORGANIZATION_ROLE ( 'design_supplier' ) ;
#462 = ORIENTED_EDGE ( 'NONE', *, *, #281, .T. ) ;
#463 = LINE ( 'NONE', #21, #250 ) ;
#464 = COORDINATED_UNIVERSAL_TIME_OFFSET ( 6, 0, .BEHIND. ) ;
#465 = ORIENTED_EDGE ( 'NONE', *, *, #406, .T. ) ;
#466 = CARTESIAN_POINT ( 'NONE',  ( 0.000000000000000000, 3.750000000000000000, 0.000000000000000000 ) ) ;
#467 = EDGE_CURVE ( 'NONE', #262, #53, #182, .T. ) ;
#468 = FACE_BOUND ( 'NONE', #138, .T. ) ;
#469 = AXIS2_PLACEMENT_3D ( 'NONE', #483, #6, #318 ) ;
#470 = CIRCLE ( 'NONE', #232, 1.500000000000001332 ) ;
#471 = FACE_BOUND ( 'NONE', #417, .T. ) ;
#472 = CARTESIAN_POINT ( 'NONE',  ( -18.25000000000000355, 4.336808689942017736E-16, 2.500000000000000000 ) ) ;
#473 = CARTESIAN_POINT ( 'NONE',  ( 0.000000000000000000, 0.000000000000000000, 2.500000000000000000 ) ) ;
#474 = VERTEX_POINT ( 'NONE', #472 ) ;
#475 = EDGE_CURVE ( 'NONE', #174, #485, #110, .T. ) ;
#476 = CARTESIAN_POINT ( 'NONE',  ( 9.250000000000001776, 3.750000000000000000, -5.900000000000000355 ) ) ;
#477 = CARTESIAN_POINT ( 'NONE',  ( 9.250000000000000000, -3.750000000000000000, -5.900000000000000355 ) ) ;
#478 = CARTESIAN_POINT ( 'NONE',  ( 14.39800000000000146, 4.093136996790198177E-15, 2.500000000000000000 ) ) ;
#479 = ORIENTED_EDGE ( 'NONE', *, *, #248, .T. ) ;
#480 = LINE ( 'NONE', #34, #57 ) ;
#481 = CLOSED_SHELL ( 'NONE', ( #356, #289, #387, #132, #177, #380, #303, #186, #496, #331, #511, #109, #82, #241 ) ) ;
#482 = APPROVAL_PERSON_ORGANIZATION ( #239, #11, #450 ) ;
#483 = CARTESIAN_POINT ( 'NONE',  ( -16.75000000000000000, 4.336808689942017736E-16, 2.500000000000000000 ) ) ;
#484 = DIRECTION ( 'NONE',  ( 0.000000000000000000, 0.000000000000000000, 1.000000000000000000 ) ) ;
#485 = VERTEX_POINT ( 'NONE', #12 ) ;
#486 = DIRECTION ( 'NONE',  ( -0.000000000000000000, 0.000000000000000000, 1.000000000000000000 ) ) ;
#487 = LINE ( 'NONE', #287, #515 ) ;
#488 = DIRECTION ( 'NONE',  ( 0.000000000000000000, 0.000000000000000000, 1.000000000000000000 ) ) ;
#489 = EDGE_CURVE ( 'NONE', #439, #290, #487, .T. ) ;
#490 = APPROVAL_STATUS ( 'not_yet_approved' ) ;
#491 = FACE_OUTER_BOUND ( 'NONE', #97, .T. ) ;
#492 = VECTOR ( 'NONE', #399, 1000.000000000000000 ) ;
#493 = PERSON_AND_ORGANIZATION ( #185, #168 ) ;
#494 = ORIENTED_EDGE ( 'NONE', *, *, #29, .F. ) ;
#495 = CARTESIAN_POINT ( 'NONE',  ( 9.250000000000001776, 3.750000000000000000, 0.000000000000000000 ) ) ;
#496 = ADVANCED_FACE ( 'NONE', ( #46 ), #42, .T. ) ;
#497 = ORIENTED_EDGE ( 'NONE', *, *, #3, .T. ) ;
#498 = PERSON_AND_ORGANIZATION_ROLE ( 'design_owner' ) ;
#499 = ORIENTED_EDGE ( 'NONE', *, *, #322, .F. ) ;
#500 = APPROVAL_PERSON_ORGANIZATION ( #416, #256, #17 ) ;
#501 = ORIENTED_EDGE ( 'NONE', *, *, #204, .T. ) ;
#502 = DIRECTION ( 'NONE',  ( -0.000000000000000000, 0.000000000000000000, 1.000000000000000000 ) ) ;
#503 = ORIENTED_EDGE ( 'NONE', *, *, #47, .F. ) ;
#504 = EDGE_LOOP ( 'NONE', ( #503, #219, #442, #279 ) ) ;
#505 = DIRECTION ( 'NONE',  ( 1.000000000000000000, 0.000000000000000000, 0.000000000000000000 ) ) ;
#506 = CIRCLE ( 'NONE', #50, 1.500000000000001332 ) ;
#507 = APPROVAL_STATUS ( 'not_yet_approved' ) ;
#508 = ORIENTED_EDGE ( 'NONE', *, *, #146, .F. ) ;
#509 = CARTESIAN_POINT ( 'NONE',  ( -16.75000000000000000, 4.336808689942017736E-16, 2.500000000000000000 ) ) ;
#510 = DIRECTION ( 'NONE',  ( 0.000000000000000000, 1.000000000000000000, -0.000000000000000000 ) ) ;
#511 = ADVANCED_FACE ( 'NONE', ( #413 ), #2, .F. ) ;
#512 = DIRECTION ( 'NONE',  ( -0.000000000000000000, -0.000000000000000000, -1.000000000000000000 ) ) ;
#513 = FACE_BOUND ( 'NONE', #236, .T. ) ;
#514 = AXIS2_PLACEMENT_3D ( 'NONE', #192, #157, #230 ) ;
#515 = VECTOR ( 'NONE', #323, 1000.000000000000000 ) ;
#516 = DIRECTION ( 'NONE',  ( 0.000000000000000000, 0.000000000000000000, 1.000000000000000000 ) ) ;
#517 = EDGE_CURVE ( 'NONE', #474, #174, #470, .T. ) ;
#518 = ORIENTED_EDGE ( 'NONE', *, *, #364, .F. ) ;
#519 = CYLINDRICAL_SURFACE ( 'NONE', #514, 1.500000000000000222 ) ;
#520 = PLANE ( 'NONE',  #391 ) ;
#521 = VERTEX_POINT ( 'NONE', #319 ) ;
#522 = CARTESIAN_POINT ( 'NONE',  ( 0.000000000000000000, 3.750000000000000000, 2.500000000000000000 ) ) ;
#523 = VERTEX_POINT ( 'NONE', #495 ) ;
#524 = DIRECTION ( 'NONE',  ( -0.000000000000000000, -0.000000000000000000, -1.000000000000000000 ) ) ;
#525 = VECTOR ( 'NONE', #83, 1000.000000000000000 ) ;
ENDSEC;
END-ISO-10303-21;
